<svg width="1118" height="159" viewBox="0 0 1118 159" fill="none" xmlns="http://www.w3.org/2000/svg">
<path d="M774.76 157.833C704.459 154.486 637.796 143.698 581.896 126.621C525.896 139.654 460.463 145.014 395.869 141.858C239.906 134.336 127.382 80.305 137.322 19.4929C103.505 8.11484 74.8733 -5.44379 52.6544 -20.6007C-55.7397 -94.3475 8.58716 -188.647 196.329 -231.225L536.266 -308.318C677.714 -340.397 848.88 -333.961 971.041 -297.298C1157.86 -277.943 1284.24 -206.884 1260.03 -129.451L1212.2 23.5876C1187.78 101.726 1018.53 158.996 823.09 159C806.935 158.998 790.794 158.609 774.76 157.833Z" fill="url(#paint0_linear)"/>
<defs>
<linearGradient id="paint0_linear" x1="631.938" y1="-196.137" x2="631.938" y2="53.4606" gradientUnits="userSpaceOnUse">
<stop stop-color="#6B73FF"/>
<stop offset="1" stop-color="#9B4EFE"/>
</linearGradient>
</defs>
</svg>
