<svg width="901" height="887" viewBox="0 0 901 887" fill="none" xmlns="http://www.w3.org/2000/svg">
<path d="M103 320.002H227.002L245.002 266.002L262.002 320.002H280.002L288.002 345.002L308.003 1L338.003 485.999L354.002 320.002L397.002 319.001C397.002 319.001 433.002 269.002 473.001 319.001L535.002 318.001L556.001 266.001L573.001 316L590.001 318L597.001 344L620.002 9.00217L649.001 486.003L664.002 318.001L713.002 320.001C714.781 319.84 746.966 269.799 787.003 319.001L903 318" stroke="white" stroke-opacity="0.5" stroke-width="2" stroke-miterlimit="10" stroke-linecap="round" stroke-linejoin="round"/>
<path opacity="0.1" d="M300.213 704.144C344.042 704.144 379.573 698.438 379.573 691.398C379.573 684.359 344.042 678.652 300.213 678.652C256.383 678.652 220.853 684.359 220.853 691.398C220.853 698.438 256.383 704.144 300.213 704.144Z" fill="url(#paint0_linear)"/>
<path opacity="0.1" d="M731.603 704.503C786.295 704.503 830.632 698.796 830.632 691.757C830.632 684.717 786.295 679.01 731.603 679.01C676.91 679.01 632.574 684.717 632.574 691.757C632.574 698.796 676.91 704.503 731.603 704.503Z" fill="url(#paint1_linear)"/>
<path opacity="0.1" d="M12.2722 342.447H94.9307V455.11H18.3235C18.1199 456.266 17.9245 457.431 17.7127 458.596H94.9307V549.456C94.7923 549.415 94.6701 549.366 94.5398 549.317C92.3571 548.454 90.1906 547.542 88.0242 546.565L86.6396 545.937C84.4678 544.911 82.2959 543.825 80.124 542.68C79.3666 542.281 78.6091 541.865 77.8599 541.442C65.8026 534.688 54.8492 526.129 45.3796 516.063C45.1027 515.795 44.842 515.51 44.5651 515.249C43.2457 513.816 41.9507 512.366 40.6965 510.883L39.3119 509.255C37.8296 507.438 36.3962 505.573 35.0035 503.684C34.7999 503.407 34.6044 503.13 34.3926 502.869C28.7285 495.016 24.0255 486.512 20.3841 477.54C20.2701 477.271 20.1723 476.978 20.0665 476.725C18.948 473.848 17.957 470.943 17.0937 468.011C16.7191 466.781 16.3607 465.567 16.0512 464.289C15.9372 463.914 15.8395 463.548 15.7499 463.181C11.1238 445.125 10.5781 426.368 10.5781 407.742C10.5781 405.567 10.5781 403.384 10.5781 401.226C10.5781 393.692 10.6677 386.11 10.798 378.535C10.798 376.573 10.8795 374.618 10.9202 372.647C11.0342 367.646 11.1971 362.645 11.4089 357.645C11.4577 356.252 11.5229 354.867 11.5962 353.483C11.5962 352.685 11.6369 351.887 11.7184 351.088C11.9138 348.189 12.0767 345.314 12.2722 342.447Z" fill="url(#paint2_linear)"/>
<path opacity="0.1" d="M94.9308 217.005H49.5903C56.9607 205.469 65.0136 194.384 73.7062 183.808C80.4417 175.534 87.5519 167.471 94.9308 159.701V217.005Z" fill="url(#paint3_linear)"/>
<path opacity="0.1" d="M94.9306 220.491V338.961H12.5327C12.5327 338.619 12.5897 338.269 12.6142 337.927C12.6875 336.99 12.7608 336.054 12.8422 335.125C12.9318 334.034 13.0295 332.934 13.1354 331.867C13.2413 330.8 13.3553 329.497 13.4775 328.316C13.5996 327.135 13.7137 325.938 13.8521 324.757C13.9906 323.576 14.1127 322.395 14.2593 321.222C14.4059 320.05 14.5363 318.86 14.691 317.688C14.8132 316.71 14.9435 315.741 15.0738 314.764C15.2611 313.387 15.4566 312.003 15.6683 310.635C15.6683 310.431 15.7254 310.219 15.7579 310.024C17.2445 300.007 19.27 290.078 21.8256 280.28C24.5007 270.002 27.9168 259.93 32.0469 250.145C36.4365 239.909 41.5761 230.011 47.4238 220.532L94.9306 220.491Z" fill="url(#paint4_linear)"/>
<path opacity="0.1" d="M114.665 342.439V455.11H291.213V342.439H114.665ZM114.665 458.588V555.344C115.675 555.556 116.677 555.76 117.67 555.931C119.022 556.191 120.366 556.428 121.743 556.631C122.003 556.672 122.272 556.713 122.557 556.737C123.095 556.827 123.648 556.9 124.186 556.973C125.546 557.161 126.898 557.315 128.258 557.437C128.902 557.503 129.553 557.56 130.205 557.609L131.777 557.731C132.632 557.796 133.479 557.845 134.318 557.869C134.839 557.869 135.36 557.918 135.898 557.934C136.305 557.934 136.712 557.934 137.136 557.934C137.559 557.934 138.162 557.934 138.675 557.934C139.375 557.934 140.076 557.934 140.768 557.934H141.705C142.405 557.934 143.106 557.934 143.798 557.869H143.847C144.327 557.869 144.816 557.869 145.305 557.804C145.44 557.812 145.576 557.812 145.712 557.804C146.119 557.804 146.526 557.804 146.917 557.747H147.202L149.931 557.535C150.827 557.454 151.731 557.348 152.643 557.25L154.5 557.03C162.054 555.972 169.525 554.382 176.856 552.274C193.325 547.68 209.434 541.254 225.895 536.547C247.176 530.479 270.689 527.498 291.254 534.918V458.588H114.665ZM291.213 217.005V67.0082C271.884 66.7988 252.608 69.0595 233.852 73.7356C189.147 84.9668 149.035 109.327 114.665 140.439V216.997H123.526V220.475H114.665V338.961H291.213V220.483H159.908V217.005H291.213ZM517.981 166.339C506.921 165.948 495.926 162.445 485.981 157.038C466.964 146.694 451.774 130.723 434.801 117.243C399.535 89.1694 355.799 72.2288 310.931 68.0263V217.005H562.963L563.59 216.346L517.981 166.339ZM540.94 162.266L565.284 188.98V155.262C557.131 156.272 549.989 158.675 540.973 162.234L540.94 162.266ZM565.284 579.371V458.588H513.412C513.273 458.075 513.135 457.553 512.972 457.032C513.127 457.553 513.257 458.075 513.404 458.588H310.964V545.937C312.886 547.363 314.784 548.861 316.665 550.384C318.693 552.013 320.697 553.732 322.708 555.418L324.736 557.095C325.705 557.91 326.683 558.724 327.668 559.49C329.623 561.075 331.597 562.639 333.589 564.181C334.575 564.996 335.585 565.729 336.586 566.494C352.49 578.654 369.267 589.627 386.781 599.325C390.707 601.497 394.668 603.617 398.664 605.685C401.327 607.046 404.007 608.398 406.694 609.709C410.734 611.68 414.806 613.58 418.911 615.41C456.756 632.398 496.773 644.055 537.821 650.049C546.937 651.395 556.089 652.454 565.276 653.225V579.362H566.09L565.284 579.371ZM310.964 220.483V338.961H565.317V220.483H310.964ZM310.964 342.439V455.11H565.317V342.439H310.964ZM585.059 155.115V192.727L616.13 158.634C605.836 156.972 595.478 155.786 585.059 155.075V155.115ZM585.059 342.48V455.11H832.448V342.439L585.059 342.48ZM831.544 588.313L832.416 458.588H585.059V654.52C600.994 655.189 616.953 654.999 632.867 653.95H633.144C640.746 653.472 648.312 652.777 655.843 651.865H656.014C696.191 647.189 735.477 636.706 772.643 620.745L831.544 588.313ZM880.151 360.992C879.222 358.801 878.253 356.627 877.267 354.477C875.427 350.404 873.48 346.446 871.477 342.488H852.174V455.11H900.976C900.952 423.216 892.88 390.638 880.175 360.951L880.151 360.992ZM852.174 458.628V570.208C865.922 557.03 877.536 541.955 885.901 524.721C895.959 503.969 900.561 481.498 900.935 458.612L852.174 458.628ZM852.174 309.649V338.969H869.669C864.376 328.876 858.544 319.075 852.199 309.608L852.174 309.649ZM684.397 177.22C683.111 176.731 681.824 176.234 680.529 175.754C666.871 170.71 652.915 166.516 638.739 163.195L591.192 215.377L590.28 216.346L590.89 217.014H760.117C736.548 200.79 711.139 187.419 684.422 177.179L684.397 177.22ZM765.077 220.524H588.528L585.059 223.7V338.961H615.47H615.519H832.481V283.131C812.854 259.394 790.202 238.332 765.101 220.483L765.077 220.524Z" fill="url(#paint5_linear)"/>
<path opacity="0.1" d="M94.9306 280.248V338.961H12.5327C12.5327 338.619 12.5897 338.269 12.6142 337.927C12.6875 336.99 12.7608 336.054 12.8422 335.125C12.9318 334.034 13.0295 332.934 13.1354 331.867C13.2413 330.801 13.3553 329.497 13.4775 328.316C13.5996 327.135 13.7137 325.938 13.8521 324.757C13.9906 323.576 14.1127 322.395 14.2593 321.223C14.4059 320.05 14.5363 318.861 14.691 317.688C14.8132 316.711 14.9435 315.741 15.0738 314.764C15.2611 313.388 15.4566 312.003 15.6683 310.635C15.6683 310.431 15.7254 310.219 15.7579 310.024C17.2445 300.007 19.27 290.078 21.8256 280.28L94.9306 280.248Z" fill="url(#paint6_linear)"/>
<path opacity="0.1" d="M12.2722 342.447H94.9307V455.11H18.3235C18.1199 456.266 17.9245 457.431 17.7127 458.596H94.9307V549.456C94.7923 549.415 94.6701 549.366 94.5398 549.317C92.3571 548.454 90.1906 547.542 88.0242 546.565L86.6396 545.937C84.4678 544.911 82.2959 543.825 80.124 542.68C79.3666 542.281 78.6091 541.865 77.8599 541.442C65.8026 534.688 54.8492 526.129 45.3796 516.063C45.1027 515.795 44.842 515.51 44.5651 515.249C43.2457 513.816 41.9507 512.366 40.6965 510.883L39.3119 509.255C37.8296 507.438 36.3962 505.573 35.0035 503.684C34.7999 503.407 34.6044 503.13 34.3926 502.869C28.7285 495.016 24.0255 486.512 20.3841 477.54C20.2701 477.271 20.1723 476.978 20.0665 476.725C18.948 473.848 17.957 470.943 17.0937 468.011C16.7191 466.781 16.3607 465.567 16.0512 464.289C15.9372 463.914 15.8395 463.548 15.7499 463.181C11.1238 445.125 10.5781 426.368 10.5781 407.742C10.5781 405.567 10.5781 403.384 10.5781 401.226C10.5781 393.692 10.6677 386.11 10.798 378.535C10.798 376.573 10.8795 374.618 10.9202 372.647C11.0342 367.646 11.1971 362.645 11.4089 357.645C11.4577 356.252 11.5229 354.867 11.5962 353.483C11.5962 352.685 11.6369 351.887 11.7184 351.088C11.9138 348.189 12.0767 345.314 12.2722 342.447Z" fill="url(#paint7_linear)"/>
<path opacity="0.1" d="M176.816 237.448V338.961H114.665V237.448H123.526V203.078H159.9V237.448H176.816Z" fill="url(#paint8_linear)"/>
<path opacity="0.1" d="M176.815 342.439H114.673V455.102H176.815V342.439Z" fill="url(#paint9_linear)"/>
<path opacity="0.1" d="M114.665 458.596H176.816V552.257C169.484 554.364 162.014 555.951 154.459 557.006L152.602 557.234C151.69 557.34 150.786 557.429 149.89 557.519C148.994 557.608 148.066 557.674 147.162 557.731H146.877C146.486 557.731 146.062 557.779 145.679 557.788H145.264C144.775 557.788 144.287 557.836 143.798 557.853C143.106 557.893 142.413 557.902 141.705 557.91C141.403 557.91 141.118 557.91 140.817 557.91C140.117 557.91 139.424 557.91 138.724 557.91H137.185C136.769 557.91 136.37 557.91 135.938 557.91L134.367 557.853C133.552 557.853 132.673 557.763 131.825 557.706L130.262 557.592L128.315 557.413C126.947 557.291 125.587 557.136 124.243 556.949L122.614 556.721L121.8 556.607C120.439 556.395 119.096 556.167 117.727 555.906C116.726 555.735 115.732 555.523 114.722 555.32L114.665 458.596Z" fill="url(#paint10_linear)"/>
<path opacity="0.1" d="M565.316 225.459H514.071V338.953H565.316V225.459Z" fill="url(#paint11_linear)"/>
<path opacity="0.1" d="M565.325 342.439V455.11H310.964V406.512H446.447V435.18H514.071V342.439H565.325Z" fill="url(#paint12_linear)"/>
<path opacity="0.1" d="M566.131 579.395H565.316V653.306C556.14 652.53 546.991 651.474 537.869 650.138C496.802 644.126 456.767 632.444 418.911 615.426C407.981 610.507 397.274 605.137 386.789 599.316C369.275 589.614 352.496 578.641 336.586 566.486C332.59 563.424 328.645 560.291 324.752 557.087C322.056 554.864 319.377 552.583 316.665 550.368C314.783 548.845 312.886 547.346 310.964 545.913V458.596H513.395C513.257 458.075 513.118 457.553 512.972 457.04C513.126 457.553 513.273 458.075 513.412 458.596H565.316V579.346C565.593 579.354 565.862 579.379 566.131 579.395Z" fill="url(#paint13_linear)"/>
<path opacity="0.1" d="M698.968 217.005H665.575V206.629H680.545V175.721C681.842 176.193 683.135 176.679 684.422 177.179V206.629H698.968V217.005Z" fill="url(#paint14_linear)"/>
<path opacity="0.1" d="M779.419 338.961H615.486C615.486 338.961 615.486 338.961 615.543 339.002L615.47 338.961H585.059V225.468H593.675V309.356H633.054V259.674H665.583V220.491H698.976V259.707H731.505V309.388H779.419V338.961Z" fill="url(#paint15_linear)"/>
<path opacity="0.1" d="M585.059 342.439V455.11H779.419V342.439H585.059ZM832.179 587.735L832.448 498.553H779.419V458.645H585.059V654.52C600.993 655.189 616.953 654.999 632.867 653.95H633.144C640.745 653.472 648.312 652.777 655.842 651.865H656.013C696.191 647.189 735.477 636.706 772.643 620.745" fill="url(#paint16_linear)"/>
<path opacity="0.1" d="M855.627 458.596H900.968C900.569 481.474 895.975 503.944 885.925 524.696C877.56 541.938 865.938 557.014 852.207 570.184V498.512H855.627V458.596Z" fill="url(#paint17_linear)"/>
<path opacity="0.1" d="M900.992 455.11H855.627V360.951H880.175C892.88 390.638 900.951 423.216 900.992 455.11Z" fill="url(#paint18_linear)"/>
<path opacity="0.1" d="M565.325 257.011H537.869V292.595H565.325V257.011Z" fill="url(#paint19_linear)"/>
<path opacity="0.1" d="M565.325 330.768H537.869V338.961H565.325V330.768Z" fill="url(#paint20_linear)"/>
<path opacity="0.1" d="M565.325 342.439H537.869V366.343H565.325V342.439Z" fill="url(#paint21_linear)"/>
<path opacity="0.1" d="M565.325 404.524H537.869V440.108H565.325V404.524Z" fill="url(#paint22_linear)"/>
<path opacity="0.1" d="M565.325 478.281H537.869V513.864H565.325V478.281Z" fill="url(#paint23_linear)"/>
<path opacity="0.1" d="M565.316 579.346C565.593 579.346 565.862 579.346 566.131 579.395H565.316V587.662H537.869V552.038H565.316V579.346Z" fill="url(#paint24_linear)"/>
<path opacity="0.1" d="M565.316 625.778V653.266C556.14 652.489 546.991 651.433 537.869 650.097V625.778H565.316Z" fill="url(#paint25_linear)"/>
<path opacity="0.1" d="M428.627 452.496H310.964V455.11H428.627V452.496Z" fill="url(#paint26_linear)"/>
<path opacity="0.1" d="M428.627 458.588H310.964V468.605H428.627V458.588Z" fill="url(#paint27_linear)"/>
<path opacity="0.1" d="M428.627 501.444H310.964V517.554H428.627V501.444Z" fill="url(#paint28_linear)"/>
<path opacity="0.1" d="M428.619 550.393V566.502H336.586C332.59 563.451 328.643 560.318 324.744 557.104C322.048 554.88 319.377 552.6 316.657 550.393H428.619Z" fill="url(#paint29_linear)"/>
<path opacity="0.1" d="M428.619 599.333V615.426H418.903C407.984 610.502 397.279 605.129 386.789 599.308L428.619 599.333Z" fill="url(#paint30_linear)"/>
<path opacity="0.1" d="M656.038 353.361H632.875V376.524H656.038V353.361Z" fill="url(#paint31_linear)"/>
<path opacity="0.1" d="M154.516 245.438H131.353V268.601H154.516V245.438Z" fill="url(#paint32_linear)"/>
<path opacity="0.1" d="M154.516 299.24H131.353V322.403H154.516V299.24Z" fill="url(#paint33_linear)"/>
<path opacity="0.1" d="M154.516 353.043H131.353V376.206H154.516V353.043Z" fill="url(#paint34_linear)"/>
<path opacity="0.1" d="M154.516 406.837H131.353V430H154.516V406.837Z" fill="url(#paint35_linear)"/>
<path opacity="0.1" d="M154.516 460.64H131.353V483.803H154.516V460.64Z" fill="url(#paint36_linear)"/>
<path opacity="0.1" d="M154.516 514.443H131.353V537.605H154.516V514.443Z" fill="url(#paint37_linear)"/>
<path opacity="0.1" d="M744.463 353.361H721.3V376.524H744.463V353.361Z" fill="url(#paint38_linear)"/>
<path opacity="0.1" d="M656.038 410.494H632.875V433.657H656.038V410.494Z" fill="url(#paint39_linear)"/>
<path opacity="0.1" d="M744.463 410.494H721.3V433.657H744.463V410.494Z" fill="url(#paint40_linear)"/>
<path opacity="0.1" d="M656.038 467.62H632.875V490.783H656.038V467.62Z" fill="url(#paint41_linear)"/>
<path opacity="0.1" d="M744.463 467.62H721.3V490.783H744.463V467.62Z" fill="url(#paint42_linear)"/>
<path opacity="0.1" d="M656.038 524.753H632.875V547.916H656.038V524.753Z" fill="url(#paint43_linear)"/>
<path opacity="0.1" d="M744.463 524.753H721.3V547.916H744.463V524.753Z" fill="url(#paint44_linear)"/>
<path opacity="0.1" d="M656.038 581.887H632.875V605.05H656.038V581.887Z" fill="url(#paint45_linear)"/>
<path opacity="0.1" d="M744.463 581.887H721.3V605.05H744.463V581.887Z" fill="url(#paint46_linear)"/>
<path opacity="0.1" d="M632.875 653.95V639.013H656.03V651.824L632.875 653.95Z" fill="url(#paint47_linear)"/>
<path opacity="0.1" d="M15.6602 310.007V323.258H94.9306V310.007H15.6602ZM23.5603 322.428H17.0936V310.822H23.6092L23.5603 322.428ZM31.4523 322.428H24.9367V310.822H31.4523V322.428ZM39.3281 322.428H32.8125V310.822H39.3281V322.428ZM47.2201 322.428H40.7126V310.822H47.2282L47.2201 322.428ZM55.104 322.428H48.5884V310.822H55.104V322.428ZM62.996 322.428H56.4804V310.822H62.996V322.428ZM70.888 322.428H64.3724V310.822H70.888V322.428ZM78.7719 322.428H72.2563V310.822H78.7719V322.428ZM86.6558 322.428H80.1402V310.822H86.6558V322.428ZM94.5396 322.428H88.024V310.822H94.5396V322.428Z" fill="url(#paint48_linear)"/>
<path opacity="0.1" d="M15.6602 348.563V361.815H94.9306V348.563H15.6602ZM23.5603 360.976H17.0936V349.402H23.6092L23.5603 360.976ZM31.4523 360.976H24.9367V349.402H31.4523V360.976ZM39.3281 360.976H32.8125V349.402H39.3281V360.976ZM47.2201 360.976H40.7126V349.402H47.2282L47.2201 360.976ZM55.104 360.976H48.5884V349.402H55.104V360.976ZM62.996 360.976H56.4804V349.402H62.996V360.976ZM70.888 360.976H64.3724V349.402H70.888V360.976ZM78.7719 360.976H72.2563V349.402H78.7719V360.976ZM86.6558 360.976H80.1402V349.402H86.6558V360.976ZM94.5396 360.976H88.024V349.402H94.5396V360.976Z" fill="url(#paint49_linear)"/>
<path opacity="0.1" d="M15.6602 387.136V400.411H94.9306V387.136H15.6602ZM23.5603 399.548H17.0936V387.967H23.6092L23.5603 399.548ZM31.4523 399.548H24.9367V387.967H31.4523V399.548ZM39.3281 399.548H32.8125V387.967H39.3281V399.548ZM47.2201 399.548H40.7126V387.967H47.2282L47.2201 399.548ZM55.104 399.548H48.5884V387.967H55.104V399.548ZM62.996 399.548H56.4804V387.967H62.996V399.548ZM70.888 399.548H64.3724V387.967H70.888V399.548ZM78.7719 399.548H72.2563V387.967H78.7719V399.548ZM86.6558 399.548H80.1402V387.967H86.6558V399.548ZM94.5396 399.548H88.024V387.967H94.5396V399.548Z" fill="url(#paint50_linear)"/>
<path opacity="0.1" d="M15.6602 425.708V438.943H94.9306V425.708H15.6602ZM23.5603 438.121H17.0936V426.531H23.6092L23.5603 438.121ZM31.4523 438.121H24.9367V426.531H31.4523V438.121ZM39.3281 438.121H32.8125V426.531H39.3281V438.121ZM47.2201 438.121H40.7126V426.531H47.2282L47.2201 438.121ZM55.104 438.121H48.5884V426.531H55.104V438.121ZM62.996 438.121H56.4804V426.531H62.996V438.121ZM70.888 438.121H64.3724V426.531H70.888V438.121ZM78.7719 438.121H72.2563V426.531H78.7719V438.121ZM86.6558 438.121H80.1402V426.531H86.6558V438.121ZM94.5396 438.121H88.024V426.531H94.5396V438.121Z" fill="url(#paint51_linear)"/>
<path opacity="0.1" d="M16.0024 464.272C16.3201 465.519 16.6784 466.765 17.0531 467.995V465.103H23.5687V476.685H20.0828C20.1887 476.953 20.2946 477.247 20.4005 477.499H94.9308V464.272H16.0024ZM31.477 476.685H24.9614V465.103H31.477V476.685ZM39.3527 476.685H32.8371V465.103H39.3527V476.685ZM47.2447 476.685H40.7129V465.103H47.2285L47.2447 476.685ZM55.1286 476.685H48.613V465.103H55.1286V476.685ZM63.0206 476.685H56.505V465.103H63.0206V476.685ZM70.9127 476.685H64.3971V465.103H70.9127V476.685ZM78.7965 476.685H72.2809V465.103H78.7965V476.685ZM86.6804 476.685H80.1648V465.103H86.6804V476.685ZM94.5643 476.685H88.0487V465.103H94.5643V476.685Z" fill="url(#paint52_linear)"/>
<path opacity="0.1" d="M34.4092 502.845C34.6128 503.105 34.8083 503.399 35.02 503.659H39.3285V509.222C39.7927 509.776 40.2488 510.33 40.7212 510.851V503.627H47.2368V515.249H44.5979C44.8586 515.518 45.111 515.803 45.4124 516.063H94.9554V502.845H34.4092ZM55.1044 515.249H48.5888V503.675H55.1044V515.249ZM62.9964 515.249H56.4808V503.675H62.9964V515.249ZM70.8884 515.249H64.3728V503.675H70.8884V515.249ZM78.7723 515.249H72.2567V503.675H78.7723V515.249ZM86.6561 515.249H80.1405V503.675H86.6561V515.249ZM94.54 515.249H88.0244V503.675H94.54V515.249Z" fill="url(#paint53_linear)"/>
<path opacity="0.1" d="M77.8926 541.409C78.6337 541.833 79.3912 542.224 80.1567 542.647V542.24H86.6723V545.905L88.0569 546.548V542.24H94.5725V549.285C94.6975 549.347 94.8285 549.396 94.9635 549.431V541.409H77.8926Z" fill="url(#paint54_linear)"/>
<path opacity="0.1" d="M615.486 338.961H615.535H615.486ZM565.316 579.338H566.131H565.316ZM512.972 457.032C513.126 457.553 513.257 458.074 513.403 458.588C513.273 458.074 513.134 457.553 512.972 457.032ZM615.486 338.937H615.535H615.486ZM123.559 216.981V220.459H159.94V216.981H123.559ZM565.316 579.338H566.131H565.316ZM512.972 457.032C513.126 457.553 513.257 458.074 513.403 458.588C513.273 458.074 513.134 457.553 512.972 457.032ZM615.486 338.937H615.535H615.486ZM565.316 579.313H566.131H565.316ZM512.972 457.032C513.126 457.553 513.257 458.074 513.403 458.588C513.273 458.074 513.134 457.553 512.972 457.032Z" fill="url(#paint55_linear)"/>
<path d="M376.951 376.222C376.951 376.222 373.742 375.774 373.742 371.099C373.742 366.424 371.445 357.693 371.445 357.693C371.445 357.653 369.458 342.488 366.713 340.077C363.968 337.666 360.442 323.511 360.442 323.511C360.442 323.511 359.839 315.831 358.609 314.177C357.379 312.524 355.718 308.476 353.266 302.702C350.815 296.927 340.593 292.928 340.593 292.928C340.593 292.928 322.114 282.21 316.877 278.716C316.401 278.429 315.956 278.093 315.549 277.714C314.637 276.517 310.662 276.493 310.662 276.493C310.247 273.87 309.848 270.857 309.718 268.128C309.718 267.835 309.718 267.542 309.677 267.249C315.516 263.797 319.915 258.355 322.065 251.921C322.162 251.611 322.244 251.286 322.333 250.976C322.683 250.861 323.005 250.674 323.279 250.427C323.552 250.18 323.771 249.879 323.922 249.543C324.394 248.492 324.402 247.262 324.989 246.285C325.673 245.128 326.976 244.509 328.002 243.638C330.592 241.439 331.26 237.733 331.138 234.361C331.056 231.633 330.616 228.88 330.787 226.168L330.836 225.484C330.885 225.077 330.942 224.669 331.016 224.278C331.415 222.259 332.286 220.353 332.775 218.349C333.263 216.346 333.312 214.09 332.172 212.363C330.502 209.83 327.025 209.325 323.971 209.064C320.509 208.771 317.414 209.154 315.199 206.279C314.162 204.776 312.996 203.367 311.713 202.068C311.257 201.645 306.826 198.941 306.826 198.762C302.502 196.759 297.601 196.383 293.021 197.703C290.725 198.371 288.558 199.462 286.229 200.008C281.204 201.197 275.421 199.91 271.153 202.785C268.775 204.414 267.35 207.004 266.014 209.529C264.928 211.608 263.826 213.685 262.708 215.759C260.908 219.172 259.075 222.641 258.318 226.42C258.158 227.243 258.06 228.076 258.025 228.913V228.953C258.025 229.255 258.025 229.556 258.025 229.857V230.24C258.025 230.525 258.025 230.802 258.073 231.055C258.122 231.307 258.114 231.389 258.139 231.56C258.163 231.731 258.204 232.113 258.253 232.374C258.301 232.635 258.399 233.091 258.497 233.449C258.538 233.604 258.595 233.75 258.643 233.897C258.725 234.174 258.823 234.443 258.929 234.711C258.986 234.85 259.043 234.997 259.108 235.135C259.23 235.42 259.376 235.697 259.523 235.949C259.588 236.063 259.637 236.169 259.702 236.275C259.93 236.654 260.18 237.018 260.452 237.367C262.194 239.541 264.76 240.926 266.658 242.962C266.658 243.043 266.658 243.125 266.658 243.198C266.658 243.426 266.658 243.646 266.658 243.874C266.758 248.415 267.967 252.863 270.179 256.83C272.39 260.797 275.537 264.164 279.347 266.638C279.347 266.947 279.388 267.265 279.404 267.575C279.563 269.992 279.533 272.418 279.314 274.831C278.983 274.441 278.567 274.13 278.099 273.921C277.631 273.712 277.122 273.611 276.61 273.626C276.26 273.609 275.91 273.639 275.568 273.715L275.494 273.658V273.732C273.703 274.172 271.495 276.037 269.386 281.339C269.386 281.339 262.968 288.571 258.082 288.27C253.195 287.968 240.823 295.795 240.823 295.795C240.823 295.795 228.753 303.63 226.163 311.612C224.716 316.138 222.98 320.567 220.967 324.871L206.046 355.617L203.293 380.009C203.293 380.009 204.816 390.858 204.515 392.511C204.214 394.165 210.778 409.077 210.778 409.077C210.778 409.077 232.467 447.185 241.328 449.14L241.964 448.692C242.343 448.89 242.745 449.04 243.161 449.14L244.985 447.853C245.095 449.287 245.048 450.729 244.847 452.153C243.625 455.916 245.303 480.472 247.437 485.285C249.571 490.099 248.813 553.21 248.813 553.21L248.512 558.781C248.512 558.781 248.512 558.96 248.585 559.27L248.512 560.589L248.732 560.703C248.96 562.47 248.886 564.263 248.512 566.005C247.746 568.449 247.437 575.355 247.437 575.355C247.437 575.355 241.336 614.351 244.228 622.186C247.119 630.021 249.579 638.606 249.579 638.606C249.579 638.606 252.633 648.379 249.725 650.049C246.818 651.718 238.551 654.52 240.253 658.592C241.801 662.355 247.673 672.438 248.544 673.912L248.471 674.686L247.274 687.66C247.468 689.373 247.932 691.044 248.65 692.612C249.961 695.438 252.511 698.37 257.357 698.052C258.171 697.995 259.116 697.897 260.028 697.775C268.897 696.586 279.819 692.628 279.819 692.628C279.252 692.268 278.732 691.838 278.272 691.349C277.836 690.927 277.49 690.42 277.257 689.86C277.023 689.3 276.905 688.698 276.912 688.091C277.042 685.73 272.619 674.474 271.52 671.705C271.349 671.306 271.259 671.078 271.259 671.078C271.259 671.078 281.342 660.539 279.664 651.197C279.664 651.197 268.506 644.681 272.18 641.106C275.853 637.53 282.417 627.26 282.417 627.26C282.417 627.26 282.719 588.859 282.417 583.125C282.103 579.146 282.292 575.142 282.979 571.21C283.101 570.615 283.248 570.037 283.403 569.467C288.483 570.225 293.611 570.614 298.747 570.631C300.62 570.631 302.526 570.631 304.448 570.517C304.448 571.06 304.473 571.647 304.521 572.277C304.945 581.789 305.735 598.469 306.378 604.667C307.291 613.553 312.332 637.498 312.332 637.498C312.332 637.498 302.713 643.671 314.01 658.885C314.01 658.885 314.01 664.399 313.261 665.197C312.461 667.807 311.816 670.461 311.33 673.146C310.858 676.013 310.662 678.913 311.428 680.419C313.261 684.019 324.256 683.726 324.256 683.726L324.524 683.677C326.6 683.463 328.698 683.662 330.696 684.265C332.694 684.868 334.552 685.861 336.163 687.187C340.341 690.543 356.198 689.069 364.783 688.002C368.146 687.578 370.394 687.187 370.394 687.187C370.503 686.807 370.542 686.409 370.508 686.015C370.419 683.905 368.765 679.279 357.558 675.15C357.558 675.15 347.019 668.064 347.166 661.891H346.946H345.724C346.612 661.842 347.182 661.891 347.182 661.891C347.182 661.891 343.053 646.823 344.739 645.602C346.425 644.38 341.375 627.684 341.375 627.684C341.375 627.684 338.484 599.667 338.329 597.704C338.336 596.019 338.591 594.345 339.087 592.736L338.329 577.375C338.329 577.375 338.183 572.268 338.329 570.607C338.305 569.165 338.188 567.726 337.979 566.299C337.906 565.728 337.832 565.134 337.751 564.548C341.701 563.546 344.267 562.617 344.267 562.617L343.811 509.149C347.166 502.633 347.785 488.339 347.769 478.2C347.769 471.684 347.476 466.862 347.476 466.862L352.061 459.378C352.061 459.378 353.12 450.419 351.442 448.456C350.701 447.568 351.035 446.648 351.646 445.89C351.963 445.639 352.298 445.41 352.647 445.206C352.647 445.206 352.598 445.133 352.541 445.027C352.862 444.759 353.202 444.517 353.559 444.302C353.559 444.302 351.931 441.777 353.388 440.71C354.757 441.639 355.978 442.339 356.907 442.909C356.842 443.504 356.777 443.846 356.777 443.846L357.168 443.032C358.063 443.537 358.609 443.846 358.609 443.846C358.609 443.846 365.793 429.536 365.638 427.427C365.483 425.317 370.525 416.432 370.525 416.432C370.525 416.432 371.135 411.765 373.888 409.81C376.641 407.855 376.022 393.692 376.022 393.692C376.022 393.692 376.788 386.313 378.62 383.3C380.453 380.286 376.951 376.222 376.951 376.222ZM239.504 369.943L239.642 373.355C238.828 372.044 238.242 371.099 238.242 371.099L239.504 369.943Z" fill="url(#paint56_linear)"/>
<path d="M359 437.664L357.241 445.157C357.241 445.157 343.151 437.966 340.61 428.828C338.069 419.69 344.861 416.22 344.861 416.22L357.99 421.783L359 437.664Z" fill="white"/>
<path opacity="0.1" d="M359 437.664L357.241 445.157C357.241 445.157 343.151 437.966 340.61 428.828C338.069 419.69 344.861 416.22 344.861 416.22L357.99 421.783L359 437.664Z" fill="black"/>
<path d="M279.925 692.677C279.925 692.677 266.894 697.466 257.935 698.068C253.178 698.386 250.678 695.47 249.391 692.66C248.688 691.098 248.235 689.436 248.047 687.733L249.212 674.824L249.831 667.95L268.865 663.006L271.561 671.249L271.813 671.876C272.896 674.629 277.237 685.827 277.107 688.165C277.102 688.763 277.217 689.357 277.447 689.909C277.676 690.462 278.015 690.963 278.443 691.382C278.88 691.875 279.378 692.31 279.925 692.677Z" fill="white"/>
<path d="M368.936 686.113C368.969 686.504 368.93 686.899 368.822 687.277C368.822 687.277 340.952 691.928 335.251 687.277C333.643 685.919 331.769 684.911 329.75 684.319C327.73 683.727 325.609 683.564 323.522 683.84C323.522 683.84 312.739 684.133 310.939 680.582C310.19 679.092 310.385 676.201 310.85 673.35C311.323 670.679 311.954 668.038 312.739 665.442L313.171 665.1L315.736 663.039L345.773 662.151H346.001C345.855 668.292 356.198 675.337 356.198 675.337C367.185 679.41 368.806 684.011 368.936 686.113Z" fill="white"/>
<path opacity="0.1" d="M368.936 686.113C368.965 686.505 368.924 686.899 368.814 687.277C368.814 687.277 340.952 691.928 335.251 687.277C333.644 685.92 331.772 684.913 329.754 684.321C327.735 683.729 325.616 683.565 323.531 683.84C323.531 683.84 312.739 684.133 310.947 680.582C310.198 679.084 310.385 676.201 310.85 673.35C315.003 673.765 321.56 674.8 324.133 677.268C328.026 681.022 334.624 684.769 338.671 685.062C341.84 685.265 360.792 685.868 368.936 686.113Z" fill="black"/>
<path opacity="0.1" d="M279.925 692.677C279.925 692.677 266.894 697.466 257.935 698.069C253.178 698.386 250.678 695.471 249.399 692.653C252.714 693.768 257.316 694.941 259.735 693.866C262.602 692.596 272.766 691.773 278.467 691.423C278.901 691.898 279.391 692.319 279.925 692.677Z" fill="black"/>
<path d="M299.26 306.75C288.509 302.571 274.68 288.766 278.133 282.316C278.9 280.688 279.356 278.931 279.477 277.136C279.699 274.699 279.732 272.248 279.575 269.806C279.333 265.806 278.851 261.825 278.133 257.883C278.133 257.883 311.697 258.64 309.742 263.584C309.172 265.033 309.082 267.55 309.237 270.368C309.392 273.186 309.799 276.371 310.222 279.066C310.809 282.764 311.395 285.582 311.395 285.582C311.395 285.582 309.343 288.457 308.137 288.612C306.932 288.766 314.686 312.703 299.26 306.75Z" fill="#949191"/>
<path opacity="0.1" d="M271.788 671.876L271.536 672.153C261.502 660.017 249.367 675.142 249.367 675.142L249.188 674.824L249.806 667.95L268.84 663.006L271.536 671.249L271.788 671.876Z" fill="black"/>
<path opacity="0.1" d="M346.01 663.006C346.01 663.006 338.679 662.852 334.77 666.305C330.861 669.758 311.966 667.054 312.78 666.305C313.021 665.934 313.167 665.508 313.203 665.067L315.769 663.006L345.806 662.119C345.92 662.664 346.01 663.006 346.01 663.006Z" fill="black"/>
<path d="M284.274 567.708C283.728 569.057 283.314 570.457 283.036 571.886C282.357 575.8 282.168 579.783 282.474 583.744C282.775 589.445 282.474 627.651 282.474 627.651C282.474 627.651 276.032 637.84 272.44 641.432C268.848 645.023 279.77 651.474 279.77 651.474C281.399 660.759 271.528 671.249 271.528 671.249C261.494 659.113 249.359 674.246 249.359 674.246C249.359 674.246 242.762 662.844 241.116 658.771C239.471 654.699 247.559 651.881 250.401 650.228C253.243 648.574 250.263 638.825 250.263 638.825C250.263 638.825 247.86 630.282 245.009 622.488C242.159 614.693 248.153 575.893 248.153 575.893C248.153 575.893 248.463 569.003 249.204 566.6C249.578 564.866 249.652 563.081 249.424 561.322C249.375 560.728 249.318 560.231 249.277 559.897C249.236 559.563 249.204 559.408 249.204 559.408L249.318 559.213L253.39 551.622C253.39 551.622 286.229 562.927 284.274 567.708Z" fill="url(#paint57_linear)"/>
<path d="M346.009 662.11C346.009 662.11 338.679 661.956 334.77 665.368C330.861 668.781 311.965 666.117 312.78 665.368C313.594 664.619 313.529 659.073 313.529 659.073C302.444 643.94 311.9 637.799 311.9 637.799C311.9 637.799 306.948 613.976 306.052 605.14C305.425 598.966 304.652 582.376 304.236 572.904C304.057 568.831 303.951 566.03 303.951 566.03L313.008 564.205L314.173 563.969L336.016 559.587C336.016 559.587 336.619 563.66 337.026 566.991C337.229 568.413 337.343 569.846 337.368 571.283C337.221 572.912 337.368 578.01 337.368 578.01L338.109 593.298C337.625 594.901 337.375 596.566 337.368 598.241C337.515 600.188 340.357 628.058 340.357 628.058C340.357 628.058 345.301 644.689 343.615 645.887C341.929 647.084 346.009 662.11 346.009 662.11Z" fill="url(#paint58_linear)"/>
<path opacity="0.1" d="M309.742 263.584C309.172 265.033 309.082 267.55 309.237 270.368C304.741 273.075 299.573 274.459 294.326 274.361C289.079 274.264 283.966 272.687 279.575 269.814C279.333 265.812 278.851 261.827 278.133 257.883C278.133 257.883 311.697 258.624 309.742 263.584Z" fill="black"/>
<path d="M322.716 245.584C322.723 248.519 322.261 251.436 321.348 254.226C319.307 260.476 315.123 265.803 309.535 269.266C303.946 272.729 297.314 274.105 290.809 273.151C284.304 272.197 278.346 268.974 273.987 264.052C269.629 259.129 267.151 252.825 266.991 246.252C266.991 246.024 266.991 245.812 266.991 245.584C266.928 241.885 267.602 238.21 268.974 234.773C270.346 231.337 272.389 228.208 274.983 225.57C277.577 222.931 280.67 220.835 284.082 219.405C287.495 217.974 291.158 217.238 294.858 217.238C298.558 217.238 302.221 217.974 305.633 219.405C309.046 220.835 312.139 222.931 314.733 225.57C317.327 228.208 319.369 231.337 320.741 234.773C322.113 238.21 322.788 241.885 322.724 245.584H322.716Z" fill="#949191"/>
<path opacity="0.1" d="M299.26 306.75C288.509 302.572 274.68 288.767 278.133 282.316C278.9 280.688 279.356 278.932 279.477 277.136L294.194 289.231L303.3 296.699L310.222 279.075C310.809 282.772 311.395 285.59 311.395 285.59C311.395 285.59 309.343 288.465 308.137 288.62C306.932 288.775 314.686 312.703 299.26 306.75Z" fill="black"/>
<path d="M337.319 360.202L325.029 566.665L309.001 567.716L267.496 448L274.305 305.87L275.739 275.841L294.194 290.998L303.308 298.467L310.434 280.329L323.685 291.878L337.319 360.202Z" fill="url(#paint59_linear)"/>
<path opacity="0.1" d="M284.274 567.708C283.728 569.057 283.313 570.457 283.036 571.886C271.373 570.085 260.046 566.546 249.432 561.388L249.212 561.274L249.285 559.962L249.326 559.278L253.398 551.688C253.398 551.688 286.229 562.927 284.274 567.708Z" fill="black"/>
<path opacity="0.1" d="M313.195 571.918C310.214 572.425 307.207 572.768 304.187 572.945C304.008 568.872 303.902 566.071 303.902 566.071L312.959 564.246L313.195 571.918Z" fill="black"/>
<path opacity="0.1" d="M336.977 567.032C331.187 568.538 322.244 570.233 314.238 569.174L314.124 564.01L335.967 559.628C335.967 559.628 336.57 563.66 336.977 567.032Z" fill="black"/>
<path opacity="0.1" d="M314.091 570.118C280.699 575.82 250.116 559.474 250.116 559.474L250.409 553.935C250.409 553.935 251.167 491.149 249.065 486.336C246.964 481.523 245.327 457.114 246.516 453.367C247.705 449.621 242.175 393.44 242.175 393.44L241.279 370.635L208.49 357.352L223.15 326.793C225.13 322.509 226.833 318.102 228.248 313.599C230.797 305.667 242.631 297.872 242.631 297.872C242.631 297.872 254.767 290.086 259.564 290.379C264.361 290.673 270.648 283.489 270.648 283.489C275.291 271.655 279.493 277.014 279.493 277.014C279.493 277.576 279.493 277.014 279.265 278.765C277.636 291.756 305.605 332.804 306.004 333.529L308.667 398.408L311.363 480.513L314.091 570.118Z" fill="black"/>
<path d="M313.195 570.119C279.803 575.82 249.212 559.474 249.212 559.474L249.514 553.935C249.514 553.935 250.271 491.149 248.162 486.336C246.052 481.523 244.423 457.114 245.62 453.367C246.818 449.621 241.279 393.44 241.279 393.44L240.375 370.635L207.569 357.303L222.229 326.745C224.205 322.458 225.908 318.052 227.328 313.55C229.869 305.618 241.711 297.823 241.711 297.823C241.711 297.823 253.846 290.037 258.635 290.33C263.424 290.624 269.72 283.44 269.72 283.44C274.371 271.606 279.493 276.965 279.493 276.965C279.493 277.527 279.005 277.78 279.265 278.716C282.849 291.316 304.709 332.755 305.108 333.48L307.804 398.359L310.5 480.464L313.195 570.119Z" fill="white"/>
<path opacity="0.1" d="M304.196 335.329C300.604 333.83 281.578 312.109 281.578 312.109V307.165C280.886 305.536 276.773 306.53 273.434 307.67L274.867 277.641L276.496 278.993C280.063 291.585 303.78 334.604 304.196 335.329Z" fill="black"/>
<path d="M305.1 333.529C301.5 332.03 282.474 310.309 282.474 310.309V305.365C281.782 303.736 277.669 304.73 274.33 305.87L275.771 275.841L277.4 277.193C280.975 289.785 304.7 332.812 305.1 333.529Z" fill="white"/>
<path opacity="0.1" d="M250.116 441.859C250.564 441.859 273.336 439.464 273.336 439.464C273.336 439.464 287.125 466.577 286.221 473.174C285.316 479.771 283.679 485.611 278.133 484.577C272.587 483.542 248.283 485.391 248.283 485.391L250.116 441.859Z" fill="black"/>
<path d="M249.212 440.059C249.66 440.059 272.432 437.665 272.432 437.665C272.432 437.665 286.212 464.786 285.316 471.375C284.421 477.964 282.767 483.811 277.229 482.777C271.691 481.743 247.379 483.591 247.379 483.591L249.212 440.059Z" fill="white"/>
<path d="M266.372 427.329C266.372 427.329 287.271 438.56 287.719 441.989C288.167 445.418 277.082 440.491 274.688 439.896C273.112 439.516 271.508 439.266 269.891 439.147L253.919 439.578L266.372 427.329Z" fill="#949191"/>
<path opacity="0.1" d="M298.364 336.73C299.579 336.73 300.563 335.745 300.563 334.531C300.563 333.316 299.579 332.332 298.364 332.332C297.15 332.332 296.165 333.316 296.165 334.531C296.165 335.745 297.15 336.73 298.364 336.73Z" fill="black"/>
<path d="M298.364 335.834C299.579 335.834 300.563 334.849 300.563 333.635C300.563 332.42 299.579 331.436 298.364 331.436C297.15 331.436 296.165 332.42 296.165 333.635C296.165 334.849 297.15 335.834 298.364 335.834Z" fill="#3F3D56"/>
<path opacity="0.1" d="M302.412 431.922C303.626 431.922 304.611 430.938 304.611 429.723C304.611 428.509 303.626 427.524 302.412 427.524C301.197 427.524 300.213 428.509 300.213 429.723C300.213 430.938 301.197 431.922 302.412 431.922Z" fill="black"/>
<path d="M302.412 431.018C303.626 431.018 304.611 430.034 304.611 428.819C304.611 427.605 303.626 426.62 302.412 426.62C301.197 426.62 300.213 427.605 300.213 428.819C300.213 430.034 301.197 431.018 302.412 431.018Z" fill="#3F3D56"/>
<path opacity="0.1" d="M300.555 384.326C301.769 384.326 302.754 383.341 302.754 382.127C302.754 380.913 301.769 379.928 300.555 379.928C299.34 379.928 298.356 380.913 298.356 382.127C298.356 383.341 299.34 384.326 300.555 384.326Z" fill="black"/>
<path d="M300.555 383.43C301.769 383.43 302.754 382.446 302.754 381.231C302.754 380.017 301.769 379.032 300.555 379.032C299.34 379.032 298.356 380.017 298.356 381.231C298.356 382.446 299.34 383.43 300.555 383.43Z" fill="#3F3D56"/>
<path d="M351.246 438.691C351.246 438.691 352.745 440.938 351.246 441.989C349.748 443.04 351.393 445.581 351.393 445.581C351.393 445.581 347.655 447.772 349.3 449.743C350.945 451.714 349.903 460.616 349.903 460.616L345.407 468.06C345.407 468.06 345.676 472.857 345.692 479.34C345.692 489.455 345.097 503.676 341.807 510.159L342.263 563.35C342.263 563.35 326.52 569.1 313.342 567.349L311.387 481.995C311.387 481.995 314.238 433.592 315.288 424.307C315.903 419.487 316.154 414.627 316.038 409.769C316.038 409.769 315.59 395.24 314.083 388.496C314.083 388.496 312.454 359.282 312.291 351.194C312.218 347.326 312.422 336.037 312.65 325.303C312.902 313.567 313.187 302.498 313.187 302.498L310.214 278.977C310.214 278.977 313.187 278.676 314.083 279.873C314.484 280.248 314.921 280.583 315.386 280.875C320.517 284.344 338.647 295.013 338.647 295.013C338.647 295.013 348.681 299.004 351.083 304.722C353.486 310.439 355.156 314.495 356.32 316.124C357.485 317.753 358.12 325.409 358.12 325.409C358.12 325.409 361.574 339.499 364.269 341.885C366.965 344.271 368.936 359.453 368.936 359.453L345.114 378.185C345.114 378.185 343.02 409.346 342.572 410.551C342.125 411.757 351.246 438.691 351.246 438.691Z" fill="white"/>
<path d="M352.15 438.691C352.15 438.691 353.641 440.939 352.15 441.989C350.66 443.04 352.289 445.581 352.289 445.581C352.289 445.581 348.575 447.796 350.204 449.767C351.833 451.738 350.806 460.64 350.806 460.64L346.311 468.084C346.311 468.084 346.579 472.881 346.604 479.364C346.604 489.48 346.009 503.7 342.719 510.183L343.167 563.375C343.167 563.375 327.399 569.125 314.238 567.374L312.291 482.02C312.291 482.02 315.142 433.617 316.192 424.332C316.808 419.512 317.056 414.652 316.933 409.794C316.933 409.794 316.486 395.264 314.987 388.521C314.987 388.521 313.358 359.306 313.187 351.219C313.114 347.35 313.325 336.062 313.545 325.327C313.798 313.591 314.083 302.523 314.083 302.523L310.157 278.684C310.157 278.684 314.083 278.684 314.987 279.897C315.384 280.277 315.821 280.612 316.29 280.899C321.421 284.369 339.559 295.038 339.559 295.038C339.559 295.038 349.585 299.029 351.987 304.746C354.39 310.464 356.06 314.52 357.232 316.149C358.405 317.777 359.024 325.433 359.024 325.433C359.024 325.433 362.478 339.523 365.173 341.91C367.869 344.296 369.816 359.445 369.816 359.445L345.993 378.177C345.993 378.177 343.9 409.338 343.444 410.543C342.988 411.749 352.15 438.691 352.15 438.691Z" fill="white"/>
<path opacity="0.1" d="M323.62 309.437L325.77 315.709L314.449 327.111C314.702 315.383 314.987 304.306 314.987 304.306L311.061 280.467C311.061 280.467 314.987 280.467 315.891 281.681C316.287 282.059 316.724 282.392 317.194 282.674L326.821 310.447L323.62 309.437Z" fill="black"/>
<path d="M322.716 307.637L324.874 313.909L313.553 325.311C313.806 313.575 314.091 302.506 314.091 302.506L310.157 278.667C310.157 278.667 314.091 278.667 314.987 279.881C315.386 280.258 315.823 280.594 316.29 280.883L325.925 308.647L322.716 307.637Z" fill="white"/>
<path opacity="0.1" d="M322.716 245.584C322.723 248.519 322.261 251.436 321.348 254.226C321.194 254.25 321.037 254.243 320.886 254.205C320.735 254.167 320.593 254.099 320.468 254.006C320.256 246.676 316.648 239.794 312.21 233.938C310.963 232.17 309.453 230.604 307.73 229.295C305.989 227.988 303.823 227.375 301.654 227.577C299.211 227.911 297.053 229.572 294.585 229.784C291.327 230.053 288.411 227.797 285.178 227.683C283.864 227.695 282.567 227.988 281.375 228.541C280.182 229.095 279.122 229.896 278.263 230.892C276.565 232.901 275.303 235.242 274.558 237.766C273.277 241.592 272.58 245.59 272.489 249.624C272.448 251.905 272.228 254.763 270.111 255.594C270.27 253.917 270.08 252.225 269.551 250.625C269.022 249.026 268.168 247.553 267.04 246.301L266.991 246.252C266.991 246.024 266.991 245.812 266.991 245.584C266.928 241.885 267.602 238.21 268.974 234.773C270.346 231.337 272.389 228.208 274.983 225.57C277.577 222.931 280.67 220.835 284.082 219.405C287.495 217.974 291.158 217.238 294.858 217.238C298.558 217.238 302.221 217.974 305.633 219.405C309.046 220.835 312.139 222.931 314.733 225.57C317.327 228.208 319.369 231.337 320.741 234.773C322.113 238.21 322.788 241.885 322.724 245.584H322.716Z" fill="black"/>
<path d="M306.395 201.335C302.162 199.345 297.349 198.968 292.858 200.277C290.602 200.944 288.477 202.028 286.188 202.573C281.301 203.754 275.6 202.476 271.406 205.334C269.076 206.963 267.676 209.537 266.372 212.037L263.115 218.243C261.339 221.64 259.547 225.093 258.806 228.831C258.065 232.57 258.513 236.756 260.883 239.761C262.61 241.952 265.159 243.328 267.032 245.389C268.154 246.642 269.006 248.114 269.533 249.712C270.06 251.309 270.251 252.999 270.095 254.674C272.22 253.859 272.424 250.992 272.473 248.712C272.563 244.678 273.261 240.68 274.541 236.854C275.285 234.329 276.547 231.988 278.247 229.98C279.106 228.985 280.167 228.184 281.359 227.631C282.551 227.077 283.848 226.784 285.162 226.771C288.42 226.885 291.344 229.133 294.569 228.864C297.012 228.66 299.179 226.991 301.638 226.665C303.807 226.46 305.974 227.072 307.714 228.383C309.436 229.69 310.944 231.256 312.185 233.026C316.632 238.882 320.24 245.747 320.452 253.094C321.372 253.77 322.7 252.89 323.156 251.848C323.612 250.805 323.628 249.583 324.207 248.59C324.874 247.441 326.153 246.831 327.155 245.967C329.696 243.776 330.331 240.087 330.234 236.74C330.136 233.392 329.484 229.996 330.119 226.705C330.502 224.686 331.366 222.796 331.838 220.801C332.31 218.805 332.367 216.566 331.252 214.847C329.623 212.322 326.194 211.825 323.205 211.589C319.809 211.296 316.771 211.671 314.604 208.812C313.587 207.32 312.443 205.92 311.184 204.626C310.752 204.202 306.395 201.515 306.395 201.335Z" fill="#512E4E"/>
<path opacity="0.1" d="M217.872 373.087L209.361 357.352L206.665 381.63C206.665 381.63 208.164 392.414 207.862 394.067C207.561 395.72 214.003 410.543 214.003 410.543C214.003 410.543 235.285 448.448 243.975 450.402L273.336 429.422L265.55 419.535C265.55 419.535 262.854 418.484 262.178 419.535C262.178 419.535 247.721 394.662 246.223 392.862C244.724 391.062 245.017 387.47 245.017 387.47C245.017 387.47 242.77 385.075 243.519 382.828C244.268 380.58 239.178 372.785 239.178 372.785L243.82 368.444L217.872 373.087Z" fill="black"/>
<path d="M209.809 355.56L207.561 357.351L204.865 381.63C204.865 381.63 206.364 392.413 206.062 394.067C205.761 395.72 212.212 410.543 212.212 410.543C212.212 410.543 233.485 448.448 242.175 450.402L271.544 429.422L263.75 419.535C263.75 419.535 261.054 418.484 260.378 419.535C260.378 419.535 245.922 394.661 244.423 392.861C242.924 391.061 243.226 387.47 243.226 387.47C243.226 387.47 240.978 385.075 241.727 382.827C242.477 380.579 237.378 372.785 237.378 372.785L242.02 368.444L209.809 355.56Z" fill="white"/>
<path opacity="0.1" d="M349.3 450.671C350.929 452.65 349.902 461.536 349.902 461.536L345.407 468.98C345.407 468.98 345.675 473.785 345.692 480.26L338.134 482.622C337.451 482.835 336.726 482.882 336.021 482.759C335.317 482.635 334.651 482.345 334.082 481.912C333.512 481.48 333.054 480.917 332.745 480.271C332.437 479.625 332.288 478.915 332.31 478.2L333.613 436.166L351.246 442.909C349.748 443.952 351.393 446.509 351.393 446.509C351.393 446.509 347.655 448.692 349.3 450.671Z" fill="black"/>
<path d="M350.204 449.767C351.833 451.746 350.806 460.64 350.806 460.64L346.311 468.084C346.311 468.084 346.579 472.881 346.604 479.364L338.907 481.767C338.238 481.975 337.529 482.02 336.839 481.898C336.15 481.777 335.499 481.492 334.941 481.069C334.383 480.645 333.935 480.094 333.633 479.462C333.331 478.829 333.185 478.134 333.206 477.434L334.517 435.27L352.158 442.014C350.652 443.056 352.297 445.605 352.297 445.605C352.297 445.605 348.575 447.796 350.204 449.767Z" fill="white"/>
<path d="M356.044 429.731C356.044 429.731 354.846 437.379 351.849 437.827C348.852 438.275 347.508 450.199 344.519 449.775C341.53 449.352 343.509 438.69 343.615 436.622C343.721 434.553 340.357 425.985 342.874 424.038C345.391 422.092 353.356 424.038 353.356 424.038L356.044 429.731Z" fill="#949191"/>
<path opacity="0.1" d="M362.421 370.839L368.073 359.437C368.073 359.437 370.321 368.127 370.321 372.769C370.321 377.411 373.464 377.868 373.464 377.868C373.464 377.868 376.91 381.94 375.093 384.904C373.277 387.869 372.544 395.248 372.544 395.248C372.544 395.248 373.139 409.33 370.443 411.276C367.747 413.223 367.185 417.873 367.185 417.873C367.185 417.873 362.233 426.71 362.388 428.811C362.543 430.913 355.498 445.141 355.498 445.141C355.498 445.141 358.943 427.459 338.867 419.82C338.867 419.82 338.712 413.817 340.21 412.172C341.709 410.527 344.047 409.778 342.581 401.462C341.114 393.147 342.157 383.21 342.157 381.215C342.157 379.22 346.653 366.775 346.653 366.775L362.421 370.839Z" fill="black"/>
<path d="M364.864 357.808L369.799 359.437C369.799 359.437 372.055 368.127 372.055 372.769C372.055 377.411 375.199 377.868 375.199 377.868C375.199 377.868 378.644 381.94 376.828 384.904C375.012 387.869 374.287 395.248 374.287 395.248C374.287 395.248 374.882 409.33 372.186 411.276C369.49 413.223 368.887 417.873 368.887 417.873C368.887 417.873 363.944 426.71 364.098 428.811C364.253 430.913 357.2 445.141 357.2 445.141C357.2 445.141 360.653 427.459 340.569 419.82C340.569 419.82 340.422 413.817 341.921 412.172C343.419 410.527 345.757 409.778 344.291 401.462C342.825 393.147 343.867 383.21 343.867 381.215C343.867 379.22 348.363 366.775 348.363 366.775L364.864 357.808Z" fill="white"/>
<path opacity="0.1" d="M255.85 653.347C255.85 653.347 263.717 648.403 268.881 651.995C274.045 655.587 255.85 653.347 255.85 653.347Z" fill="black"/>
<path opacity="0.1" d="M316.982 638.06C316.982 638.06 323.946 637.164 329.794 643.46C335.642 649.755 316.982 638.06 316.982 638.06Z" fill="black"/>
<g opacity="0.1">
<path opacity="0.1" d="M327.171 244.184C326.17 245.047 324.883 245.666 324.215 246.814C323.645 247.8 323.628 249.013 323.172 250.072C322.716 251.131 321.389 251.994 320.468 251.326C320.257 243.996 316.64 237.114 312.202 231.25C310.961 229.48 309.452 227.914 307.73 226.608C305.987 225.297 303.818 224.684 301.646 224.889C299.203 225.223 297.053 226.885 294.585 227.088C291.327 227.365 288.403 225.109 285.17 224.995C283.856 225.008 282.56 225.302 281.369 225.857C280.178 226.412 279.119 227.215 278.264 228.212C276.563 230.218 275.301 232.556 274.558 235.078C273.278 238.905 272.581 242.902 272.489 246.936C272.44 249.209 272.228 252.043 270.127 252.89C270.176 253.492 270.176 254.096 270.127 254.698C272.245 253.884 272.457 251.017 272.505 248.736C272.596 244.702 273.294 240.705 274.574 236.878C275.317 234.354 276.58 232.012 278.28 230.004C279.137 229.009 280.196 228.209 281.387 227.655C282.578 227.102 283.873 226.809 285.186 226.795C288.444 226.909 291.376 229.157 294.601 228.888C297.045 228.685 299.211 227.015 301.663 226.689C303.834 226.484 306.003 227.097 307.747 228.408C309.469 229.714 310.977 231.28 312.218 233.05C316.657 238.906 320.273 245.772 320.485 253.118C321.405 253.794 322.733 252.915 323.189 251.872C323.645 250.83 323.661 249.608 324.231 248.614C324.899 247.466 326.186 246.855 327.188 245.992C329.729 243.801 330.364 240.111 330.266 236.764C330.266 236.658 330.266 236.552 330.266 236.455C330.111 239.354 329.338 242.31 327.171 244.184Z" fill="black"/>
<path opacity="0.1" d="M267.049 243.605C265.175 241.545 262.618 240.168 260.9 237.986C259.453 236.054 258.626 233.728 258.529 231.315C258.273 234.33 259.115 237.335 260.9 239.778C262.618 241.968 265.175 243.345 267.049 245.405C268.847 247.421 269.927 249.976 270.119 252.67C270.244 251.03 270.036 249.382 269.509 247.825C268.981 246.267 268.144 244.832 267.049 243.605Z" fill="black"/>
<path opacity="0.1" d="M331.854 219.017C331.374 221.013 330.519 222.91 330.128 224.922C329.896 226.266 329.812 227.632 329.875 228.994C329.903 228.218 329.987 227.445 330.128 226.681C330.519 224.661 331.374 222.772 331.854 220.776C332.134 219.676 332.225 218.536 332.123 217.405C332.073 217.948 331.983 218.487 331.854 219.017Z" fill="black"/>
</g>
<path opacity="0.1" d="M109.102 686.463C152.932 686.463 188.462 680.756 188.462 673.716C188.462 666.677 152.932 660.97 109.102 660.97C65.2729 660.97 29.7422 666.677 29.7422 673.716C29.7422 680.756 65.2729 686.463 109.102 686.463Z" fill="url(#paint60_linear)"/>
<path d="M111.659 429.544H106.553V544.52H111.659V429.544Z" fill="#535461"/>
<path d="M143.749 544.17L143.431 549.35L142.975 556.68L142.788 559.726L142.34 567.056L142.145 570.102L141.688 577.432L136.541 660.563C136.317 664.14 134.739 667.497 132.128 669.951C129.516 672.405 126.067 673.772 122.484 673.774H95.7209C92.138 673.772 88.6903 672.405 86.0801 669.951C83.4699 667.496 81.8934 664.139 81.6716 660.563L76.5487 577.375L76.0926 570.045L75.9053 566.999L75.4492 559.669L75.2619 556.623L74.8058 549.293L74.48 544.113C74.4235 543.116 74.5712 542.118 74.9141 541.18C75.2571 540.242 75.788 539.385 76.4744 538.659C77.1608 537.934 77.9881 537.357 78.9056 536.963C79.8232 536.569 80.8115 536.366 81.8101 536.368H136.549C137.544 536.376 138.527 536.589 139.436 536.992C140.346 537.395 141.163 537.98 141.838 538.711C142.512 539.442 143.03 540.304 143.359 541.243C143.687 542.182 143.82 543.178 143.749 544.17Z" fill="#3F3D56"/>
<path d="M143.431 549.35L142.975 556.655H75.229L74.7729 549.35H143.431Z" fill="#9D9CB5"/>
<path d="M142.788 559.702L142.34 567.015H75.8726L75.4165 559.702H142.788Z" fill="#9D9CB5"/>
<path d="M142.145 570.07L141.697 577.375H76.5161L76.0601 570.07H142.145Z" fill="#9D9CB5"/>
<path d="M66.9788 472.637C96.7143 494.155 109.127 527.808 109.127 527.808C109.127 527.808 73.2908 526.578 43.547 505.06C13.8033 483.542 1.41553 449.897 1.41553 449.897C1.41553 449.897 37.235 451.119 66.9788 472.637Z" fill="url(#paint61_linear)"/>
<path d="M1.39111 449.897C1.39111 449.897 38.5952 470.544 50.5269 487.639C62.4586 504.734 109.127 527.808 109.127 527.808" stroke="#09BD9F" stroke-width="2" stroke-miterlimit="10"/>
<path d="M86.1755 429.292C102.359 440.995 109.127 459.312 109.127 459.312C109.127 459.312 89.6207 458.644 73.4294 446.941C57.2381 435.237 50.4863 416.912 50.4863 416.912C50.4863 416.912 69.9843 417.58 86.1755 429.292Z" fill="url(#paint62_linear)"/>
<path d="M50.4863 416.912C50.4863 416.912 70.7336 428.151 77.2247 437.453C83.7159 446.754 109.127 459.312 109.127 459.312" stroke="#09BD9F" stroke-width="2" stroke-miterlimit="10"/>
<path d="M132.623 458.384C114.03 478.818 110.096 505.524 110.096 505.524C110.096 505.524 136.313 499.09 154.89 478.647C173.468 458.205 177.418 431.507 177.418 431.507C177.418 431.507 151.217 437.949 132.623 458.384Z" fill="url(#paint63_linear)"/>
<path d="M177.434 431.515C177.434 431.515 153.213 452.463 147.055 466.895C140.898 481.327 110.096 505.524 110.096 505.524" stroke="#09BD9F" stroke-width="2" stroke-miterlimit="10"/>
<path d="M815.182 451.192C815.182 451.192 801.735 384.294 806.882 375.97C806.882 375.97 807.07 368.233 806.76 358.37C806.76 357.995 806.76 357.62 806.76 357.238C807.666 357.841 808.61 358.385 809.586 358.866C814.329 361.303 819.774 362.006 824.979 360.854L820.907 356.317C819.93 355.234 818.912 354.061 818.7 352.628C818.488 351.194 819.075 349.916 819.58 348.637C823.448 338.864 823.652 326.573 816.2 319.113C809.904 312.842 808.373 304.746 801.54 299.021C796.547 294.826 793.802 288.677 791.212 282.732C789.022 277.706 786.814 272.641 785.56 267.314C784.583 263.152 784.192 258.844 782.848 254.78C781.504 250.716 778.988 246.765 775.054 244.949C773.653 244.306 772.097 243.939 770.819 243.084C769.141 241.952 768.131 240.111 766.917 238.499C760.752 230.354 740.106 235.151 730.332 238.458C727.675 239.291 725.215 240.654 723.1 242.465L723.19 242.319C723.263 242.196 723.352 242.074 723.434 241.952C722.364 242.817 721.44 243.848 720.697 245.006C719.272 247.262 718.678 249.893 717.488 252.336C716.055 255.228 708.081 263.299 711.51 266.549C711.751 266.767 712.026 266.943 712.325 267.07C713.612 267.605 715.029 267.747 716.397 267.477L716.25 267.827C715.079 270.694 714.479 273.762 714.483 276.859C714.483 290.241 725.519 301.089 739.145 301.089C741.706 301.092 744.253 300.699 746.695 299.925C746.752 300.234 746.8 300.544 746.857 300.853C746.857 300.975 746.898 301.097 746.915 301.22L746.483 301.822C746.461 301.785 746.437 301.75 746.41 301.716L733.623 319.585C731.668 320.962 720.412 329.106 719.777 335.215C719.109 341.901 718.441 349.728 718.441 349.728L718.352 351.406C717.793 351.873 717.139 352.213 716.436 352.403C715.733 352.593 714.997 352.628 714.279 352.506C710.289 351.854 710.289 367.166 710.289 367.166C710.289 367.166 707.634 369.609 705.809 367.491C703.985 365.374 699.163 372.549 699.163 372.549L668.947 373.852L668.255 373.893L666.626 368.852C666.451 368.32 666.073 367.879 665.574 367.624C665.075 367.369 664.496 367.322 663.963 367.491C663.837 367.533 663.714 367.585 663.596 367.646L663.482 367.711L663.27 367.858L663.165 367.956C663.106 368.009 663.052 368.066 663.002 368.127L662.904 368.241L662.855 368.29C662.667 368.55 662.542 368.85 662.492 369.167C662.441 369.484 662.465 369.808 662.562 370.114L663.963 374.439C658.131 375.611 652.169 378.918 657.032 388.024L632.386 383.471L640.36 390.166L681.522 398.66C680.977 399.638 681.335 401.055 683.037 403.05C690.367 411.659 703.724 413.997 709.1 414.599C710.519 417.775 712.292 420.78 714.385 423.558L713.921 432.134C713.921 432.134 700.312 497.502 697.819 500.817C699.078 499.391 700.229 497.875 701.265 496.28C697.314 509.711 691.792 528.093 690.343 530.846C688.013 535.244 685.855 553.039 688.51 554.18C689.325 554.53 691.654 554.359 694.977 554.106V555.581L694.83 611.444C694.83 611.444 695.498 645.708 693.666 648.974C691.833 652.24 691.345 659.089 691.345 659.089C691.345 659.089 684.014 672.601 678.207 678.033C678.168 678.075 678.124 678.114 678.077 678.147L677.898 676.877C677.898 676.877 670.918 685.689 655.476 685.192C655.476 685.192 646.183 691.235 659.964 691.561C673.744 691.887 691.345 691.072 691.345 691.072C691.345 691.072 703.635 672.34 713.929 674.783V688.979H717.081V674.555C718.543 673.593 719.794 672.344 720.759 670.884C721.723 669.424 722.381 667.783 722.693 666.061C722.962 664.286 722.765 662.471 722.119 660.796C721.474 659.12 720.403 657.642 719.011 656.507C718.386 655.942 717.885 655.254 717.539 654.486C717.193 653.718 717.009 652.887 717 652.044L716.886 652.142C716.886 651.857 716.812 651.564 716.78 651.262C715.876 643.932 714.744 628.808 718.743 617.617C724.224 602.273 725.885 580.902 721.895 568.18C720.607 564.114 719.549 559.978 718.726 555.792C718.629 555.263 718.539 554.758 718.458 554.286C721.186 554.655 723.887 555.199 726.545 555.914C735.789 558.464 756.012 558.936 773.278 558.798C773.319 559.27 773.368 559.767 773.425 560.264C773.733 563.717 774.376 567.132 775.347 570.461C777.513 576.976 778.507 605.702 778.507 605.702C778.507 605.702 781.301 629.321 779.778 638.931C778.963 644.274 778.149 649.641 777.684 655.033V655.139C777.684 655.139 773.107 668.17 769.76 675.248C769.678 675.427 769.589 675.606 769.507 675.777C768.615 675.858 767.736 676.053 766.893 676.355C766.893 676.355 762.405 685.314 757.934 686.797C753.463 688.279 754.945 693.157 765.069 691.366C775.192 689.574 790.479 688.108 790.479 688.108L791.139 678.97L794.25 675.077L793.436 684.19L796.751 683.539L796.311 672.454L801.401 666.085C801.401 666.085 807.55 660.612 798.412 649.845V650.081C798.314 649.926 798.225 649.764 798.119 649.609V649.56C796.604 647.214 795.399 642.841 797.606 635.079C801.597 621.054 803.918 608.324 803.918 608.324C803.918 608.324 812.828 574.223 802.118 558.089H802.59C801.493 555.819 800.717 553.406 800.285 550.922C800.231 550.629 800.182 550.327 800.139 550.018C808.063 549.562 815.841 548.128 822.186 545.033C822.162 545.001 818.342 464.077 815.182 451.192ZM714.573 394.751V394.914L712.944 394.995L714.573 394.751ZM708.986 395.525C708.718 395.584 708.467 395.704 708.253 395.875C707.552 396.866 707.113 398.017 706.974 399.222L704.433 398.652C704.433 398.652 702.649 398.27 700.084 397.838L698.87 396.616C702.209 396.339 705.679 395.932 708.986 395.525Z" fill="url(#paint64_linear)"/>
<path d="M793.061 672.568L792.092 684.109L795.341 683.457L794.853 670.939L793.061 672.568Z" fill="#1D2366"/>
<path d="M718.922 617.772C715.004 628.93 716.112 643.989 716.991 651.303C717.317 654.007 717.618 655.652 717.618 655.652C717.618 655.652 711.763 668.993 711.274 669.498C710.785 670.003 694.04 680.224 694.04 680.224L682.337 687.057C682.337 687.057 670.462 681.853 676.155 680.061C677.318 679.594 678.366 678.88 679.225 677.968C684.926 672.552 692.086 659.089 692.086 659.089C692.086 659.089 692.574 652.256 694.366 649.006C696.158 645.756 695.506 611.607 695.506 611.607L695.645 555.939V548.682L717.92 548.845C718.06 551.309 718.382 553.759 718.881 556.175C719.68 560.346 720.716 564.469 721.984 568.522C725.91 581.219 724.281 602.485 718.922 617.772Z" fill="#949191"/>
<path opacity="0.1" d="M717.619 655.652C717.619 655.652 711.763 668.993 711.274 669.498C710.785 670.003 694.04 680.224 694.04 680.224L682.337 687.057C682.337 687.057 670.462 681.853 676.155 680.061C677.318 679.594 678.366 678.88 679.225 677.968L679.73 681.527L683.632 681.364L717.024 651.319C717.317 654.007 717.619 655.652 717.619 655.652Z" fill="black"/>
<path d="M717.211 652.076L683.632 682.325L679.73 682.488L678.916 676.787C678.916 676.787 672.091 685.567 656.926 685.078C656.926 685.078 647.82 691.097 661.316 691.423C674.811 691.748 692.045 690.934 692.045 690.934C692.045 690.934 704.082 672.202 714.157 674.645V688.792H717.252V674.515C718.691 673.546 719.919 672.296 720.863 670.84C721.806 669.385 722.445 667.753 722.742 666.044C723.009 664.284 722.82 662.484 722.191 660.818C721.562 659.152 720.515 657.676 719.15 656.531C718.54 655.96 718.054 655.27 717.721 654.504C717.387 653.738 717.214 652.912 717.211 652.076Z" fill="#1D2366"/>
<path d="M796.156 635.169C793.99 642.906 795.171 647.263 796.653 649.601V649.649C798.554 652.536 799.876 655.764 800.546 659.154L800.676 659.887L785.397 682.162L777.106 685.42C777.106 685.42 763.774 680.867 766.209 679.564C766.82 679.247 767.772 677.552 768.864 675.215C772.122 668.17 776.617 655.171 776.617 655.171V655.066C777.09 649.698 777.839 644.347 778.67 639.021C780.16 629.435 777.424 605.905 777.424 605.905C777.424 605.905 776.446 577.294 774.329 570.786C773.373 567.478 772.737 564.085 772.431 560.654C771.991 556.582 771.894 553.227 771.894 553.227C771.894 553.227 780.673 541.01 796.767 554.204C798.054 555.256 799.186 556.485 800.131 557.853C811.248 573.669 802.297 608.512 802.297 608.512C802.297 608.512 800.057 621.184 796.156 635.169Z" fill="#949191"/>
<path opacity="0.1" d="M800.701 659.887L785.422 682.163L777.131 685.42C777.131 685.42 763.798 680.868 766.233 679.564C766.844 679.247 767.797 677.553 768.888 675.215C774.532 675.166 777.456 680.542 777.456 680.542L784.607 679.402C784.607 679.402 794.038 660.865 796.156 659.733C798.274 658.6 796.482 651.27 796.482 651.27V649.405C796.539 649.47 796.588 649.544 796.653 649.609V649.658C798.554 652.544 799.876 655.772 800.546 659.162L800.701 659.887Z" fill="black"/>
<path d="M777.945 681.022C777.945 681.022 773.873 673.545 766.07 676.306C766.07 676.306 761.68 685.265 757.29 686.715C752.9 688.165 754.366 693.051 764.286 691.268C774.206 689.484 789.16 688.01 789.16 688.01L789.811 678.896L799.894 666.052C799.894 666.052 805.905 660.604 796.962 649.877V651.743C796.962 651.743 798.754 659.073 796.637 660.205C794.519 661.337 785.12 679.882 785.12 679.882L777.945 681.022Z" fill="#1D2366"/>
<path opacity="0.1" d="M717.944 548.829C718.085 551.292 718.406 553.742 718.905 556.159C709.735 554.815 701.224 555.483 695.645 555.923V548.666L717.944 548.829Z" fill="black"/>
<path opacity="0.1" d="M801.035 559.881C801.035 559.881 788.003 560.516 772.464 560.646C772.024 556.574 771.926 553.219 771.926 553.219C771.926 553.219 780.706 541.002 796.799 554.196C798.086 555.248 799.219 556.477 800.163 557.845C800.416 558.539 800.707 559.219 801.035 559.881Z" fill="black"/>
<path d="M801.035 558.415C801.035 558.415 743.958 561.176 726.561 556.297C709.165 551.419 691.923 555.646 689.325 554.514C686.727 553.382 688.836 535.651 691.116 531.261C693.397 526.871 705.907 482.475 705.907 482.475L717.944 419.714L730.625 416.22L731.521 415.967L753.617 409.875L769.809 405.404C769.809 405.404 802.004 531.098 799.243 540.367C798.24 543.916 798.079 547.65 798.771 551.272C799.192 553.746 799.954 556.15 801.035 558.415Z" fill="url(#paint65_linear)"/>
<path d="M675.984 376.792C675.984 376.792 664.582 389.009 673.215 395.818C681.848 402.627 687.525 396.47 687.525 396.47L675.984 376.792Z" fill="#C7DAF5"/>
<path opacity="0.1" d="M675.984 376.792C675.984 376.792 664.582 389.009 673.215 395.818C681.848 402.627 687.525 396.47 687.525 396.47L675.984 376.792Z" fill="black"/>
<path d="M768.106 296.471C768.106 296.471 766.771 297.742 764.759 299.615C761.892 302.295 757.649 306.212 753.886 309.494C748.674 314.031 744.373 317.362 745.913 314.519C747.452 311.677 747.159 306.725 746.393 302.091C746.336 301.781 746.287 301.472 746.23 301.171C745.596 297.767 744.756 294.405 743.714 291.104C743.714 291.104 752.135 280.223 756.794 275.931C758.528 274.302 759.742 273.634 759.815 274.766C759.897 276.289 761.037 279.653 762.454 283.22C762.495 283.334 762.536 283.44 762.584 283.554C763.529 285.997 764.596 288.506 765.533 290.672C766.966 293.995 768.106 296.471 768.106 296.471Z" fill="#949191"/>
<path opacity="0.1" d="M762.585 283.554C761.793 287.811 759.873 291.777 757.025 295.038C754.177 298.298 750.505 300.734 746.393 302.091C745.746 298.373 744.85 294.703 743.714 291.104C743.714 291.104 759.571 270.621 759.815 274.766C759.872 276.338 761.11 279.824 762.585 283.554Z" fill="black"/>
<path opacity="0.1" d="M744.813 307.564L746.865 304.673C746.865 304.673 748.226 312.964 753.226 309.307C758.227 305.65 758.471 336.827 758.471 336.827L753.104 417.075L714.32 414.754L715.42 375.978L719.809 356.431L730.666 328.015L737.125 318.624L744.813 307.564Z" fill="black"/>
<path d="M758.471 337.324L753.585 409.883L753.072 417.572L731.448 416.277L730.633 416.228L714.344 415.251L715.444 376.467L719.834 356.92L730.69 328.504L737.149 319.113L744.837 308.012L746.89 305.129C746.89 305.129 748.25 313.42 753.251 309.763L753.357 309.69C758.243 306.595 758.471 337.324 758.471 337.324Z" fill="#1D2366"/>
<path d="M720.38 350.127C720.38 350.127 718.433 354.2 714.524 353.54C710.614 352.88 710.623 368.2 710.623 368.2C710.623 368.2 708.024 370.643 706.233 368.526C704.441 366.408 699.717 373.567 699.717 373.567L670.12 374.87C670.12 374.87 683.29 380.889 680.708 399.1C680.708 399.1 725.421 396.331 726.887 392.104C728.353 387.877 720.38 350.127 720.38 350.127Z" fill="white"/>
<path opacity="0.03" d="M720.38 350.127C720.38 350.127 718.433 354.2 714.524 353.54C710.614 352.88 710.623 368.2 710.623 368.2C710.623 368.2 708.024 370.643 706.233 368.526C704.441 366.408 699.717 373.567 699.717 373.567L670.12 374.87C670.12 374.87 683.29 380.889 680.708 399.1C680.708 399.1 725.421 396.331 726.887 392.104C728.353 387.877 720.38 350.127 720.38 350.127Z" fill="black"/>
<path d="M634.365 384.44L642.168 391.102L706.396 404.598L698.43 396.469L634.365 384.44Z" fill="white"/>
<path d="M744.935 310.13C743.868 311.759 740.814 320.099 738.265 327.38C736.139 333.447 734.364 338.782 734.364 338.782C734.364 338.782 730.218 365.773 728.1 370.652C725.983 375.53 727.131 394.556 727.131 394.556L719.239 441.541C719.239 441.541 715.664 465.771 710.142 480.244C704.693 494.489 698.626 501.167 698.438 501.379C700.882 498.072 714.198 432.965 714.198 432.965L718.596 350.852C718.596 350.852 719.239 343.05 719.891 336.379C720.542 329.709 733.736 320.604 733.736 320.604L746.458 302.515C747.737 304.225 746.882 307.206 744.935 310.13Z" fill="white"/>
<path d="M711.763 415.658C711.763 415.658 693.03 414.843 683.957 403.946C674.884 393.049 704.929 399.597 704.929 399.597L712.74 401.389L711.763 415.658Z" fill="#949191"/>
<path opacity="0.1" d="M799.243 540.375C798.24 543.924 798.078 547.658 798.77 551.28C778.336 552.73 756.476 547.208 756.476 547.208C752.404 550.954 741.678 556.476 741.678 556.476L735.83 483.99C732.091 474.217 730.625 423.012 730.625 423.012C730.625 423.012 730.959 420.333 731.44 416.318C731.44 416.22 731.44 416.114 731.481 416.016C732.939 404.801 735.83 383.748 737.247 380.905C739.202 376.996 731.236 366.595 731.236 366.595L734.861 335.687L735.3 331.957C742.94 328.544 748.796 317.647 748.796 317.647L753.292 309.771C758.178 306.636 758.431 337.365 758.431 337.365L753.544 409.924L769.735 405.453C769.735 405.453 802.004 531.106 799.243 540.375Z" fill="black"/>
<path d="M820.215 545.383C797.94 556.444 757.453 546.198 757.453 546.198C753.381 549.944 742.655 555.466 742.655 555.466L736.799 482.98C733.069 473.207 731.603 422.002 731.603 422.002C731.603 422.002 736.31 383.797 738.265 379.895C738.835 378.755 738.558 377.061 737.882 375.237C734.559 366.553 733.336 357.207 734.315 347.961L735.878 334.677L736.31 330.955C743.958 327.534 749.814 316.637 749.814 316.637L753.886 309.502L761.379 296.357L764.93 290.135L765.533 290.68L770.134 294.85C770.134 294.85 772.089 296.479 775.021 298.923C781.398 304.298 792.418 313.762 798.102 319.553C803.103 324.651 804.683 344.483 805.139 359.412C805.441 369.242 805.261 376.947 805.261 376.947C800.22 385.246 813.406 451.876 813.406 451.876C816.476 464.753 820.215 545.383 820.215 545.383Z" fill="white"/>
<path opacity="0.03" d="M777.456 316.474C777.456 316.474 762.169 345.575 763.944 356.635C765.72 367.695 770.77 380.213 768.334 383.137C767.498 384.245 766.416 385.144 765.174 385.764C763.932 386.384 762.564 386.709 761.175 386.712C758.732 386.875 752.216 391.428 752.216 391.917C752.216 392.405 746.198 392.405 740.814 394.686C735.431 396.966 727.482 398.261 727.482 398.261C727.482 398.261 712.007 397.773 710.565 399.239C709.124 400.705 707.642 409.476 710.728 416.472C713.815 423.468 717.244 428.689 719.834 429.642C722.424 430.595 738.859 425.089 752.192 423.786C765.525 422.483 779.997 411.92 779.997 411.92C779.997 411.92 795.936 406.218 798.73 396.632C801.523 387.046 795.317 334.36 795.317 334.36C795.317 334.36 790.626 309.804 777.456 316.474Z" fill="black"/>
<path opacity="0.03" d="M775.501 314.031C775.501 314.031 760.214 343.139 762.006 354.191C763.798 365.243 768.831 377.77 766.388 380.702C765.554 381.811 764.474 382.711 763.233 383.331C761.992 383.952 760.624 384.276 759.237 384.277C756.794 384.44 750.278 388.993 750.278 389.481C750.278 389.97 744.259 389.97 738.876 392.242C733.492 394.515 725.543 395.818 725.543 395.818C725.543 395.818 710.069 395.329 708.635 396.795C707.202 398.261 705.703 407.041 708.798 414.029C711.893 421.017 715.314 426.246 717.904 427.199C720.493 428.152 736.929 422.646 750.262 421.351C763.594 420.056 778.067 409.476 778.067 409.476C778.067 409.476 793.998 403.775 796.759 394.197C799.52 384.619 793.346 331.916 793.346 331.916C793.346 331.916 788.671 307.369 775.501 314.031Z" fill="black"/>
<path d="M776.976 315.008C776.976 315.008 761.689 344.117 763.48 355.169C765.272 366.221 770.305 378.747 767.87 381.671C767.037 382.783 765.956 383.685 764.713 384.307C763.471 384.929 762.101 385.253 760.711 385.255C758.268 385.417 751.752 389.97 751.752 390.451C751.752 390.931 745.742 390.939 740.35 393.22C734.958 395.5 727.017 396.795 727.017 396.795C727.017 396.795 711.543 396.307 710.101 397.773C708.66 399.239 707.177 408.018 710.264 415.006C713.351 421.994 716.78 427.223 719.37 428.176C721.96 429.129 738.395 423.623 751.728 422.32C765.06 421.017 779.533 410.454 779.533 410.454C779.533 410.454 795.472 404.753 798.265 395.166C801.059 385.58 794.894 332.894 794.894 332.894C794.894 332.894 790.137 308.379 776.976 315.008Z" fill="white"/>
<path opacity="0.1" d="M776.642 393.081C776.642 393.081 764.425 390.638 768.677 394.71C772.928 398.783 772.904 402.35 778.108 402.187C783.312 402.024 776.642 393.081 776.642 393.081Z" fill="black"/>
<path opacity="0.1" d="M797.288 480.7C797.288 480.7 791.766 484.438 802.33 493.055C812.893 501.672 797.288 480.7 797.288 480.7Z" fill="black"/>
<path opacity="0.1" d="M786.749 511.429C786.749 511.918 784.794 529.347 792.108 533.704C799.422 538.062 786.749 511.429 786.749 511.429Z" fill="black"/>
<path d="M670.625 374.83C664.728 375.033 651.99 376.833 658.595 389.156C664.435 400.061 674.249 392.772 679.771 387.242C678.424 382.086 675.15 377.643 670.625 374.83Z" fill="#565454"/>
<path d="M679.844 387.144L680.089 386.892L679.844 387.144Z" fill="#FFB0B1"/>
<path opacity="0.1" d="M775.021 299.42C768.766 303.696 763.521 307.304 762.495 308.053C759.693 310.13 754.35 322.322 750.905 328.544C748.16 333.553 739.242 334.84 735.878 335.158L736.31 331.436C743.958 328.015 749.814 317.118 749.814 317.118L764.93 290.615L770.134 295.347C770.134 295.347 772.089 296.976 775.021 299.42Z" fill="black"/>
<path d="M775.021 298.931C768.766 303.207 763.521 306.815 762.495 307.572C759.693 309.641 754.35 321.833 750.905 328.056C748.16 333.064 739.242 334.351 735.878 334.669L736.31 330.947C743.958 327.526 749.814 316.629 749.814 316.629L764.93 290.127L770.134 294.842C770.134 294.842 772.089 296.455 775.021 298.931Z" fill="#DCE7FF"/>
<path d="M762.984 278.179C762.987 283.068 761.504 287.843 758.732 291.87C755.458 296.631 750.586 300.061 744.999 301.538C739.412 303.014 733.481 302.439 728.282 299.917C723.083 297.394 718.961 293.092 716.663 287.79C714.365 282.488 714.043 276.538 715.757 271.019C717.471 265.501 721.106 260.779 726.003 257.711C730.9 254.644 736.735 253.433 742.448 254.299C748.161 255.165 753.375 258.051 757.142 262.432C760.91 266.813 762.983 272.4 762.984 278.179Z" fill="#949191"/>
<path opacity="0.1" d="M805.139 359.42C801.832 357.386 799.138 354.492 797.345 351.048C795.985 348.36 795.081 345.257 792.76 343.351C790.667 341.641 787.873 341.226 785.267 340.46C776.699 337.927 769.515 330.108 769.247 321.182C769.116 316.979 770.428 312.785 769.833 308.623C769.495 306.268 768.558 304.038 767.113 302.148C766.395 301.244 765.608 300.397 764.759 299.615C763.619 298.54 762.422 297.498 761.379 296.357C760.722 295.651 760.148 294.873 759.669 294.036C759.281 293.352 758.967 292.628 758.732 291.878C757.103 286.894 758.585 280.981 756.794 275.939L756.696 275.662C756.02 273.87 754.644 272.079 752.73 271.94C750.816 271.802 749.179 273.39 747.354 274.099C743.534 275.581 739.413 273.056 736.229 270.482C733.044 267.909 729.453 264.969 725.405 265.539C722.725 265.921 720.608 267.746 718.14 268.691C717.583 268.906 717.008 269.073 716.421 269.187C718.51 263.979 722.347 259.661 727.273 256.974C732.2 254.287 737.908 253.4 743.418 254.465C748.927 255.53 753.894 258.48 757.464 262.809C761.035 267.138 762.986 272.576 762.983 278.187C762.986 279.882 762.809 281.572 762.454 283.228C762.495 283.343 762.536 283.448 762.584 283.562C763.529 286.006 764.596 288.514 765.533 290.681L770.134 294.851C770.134 294.851 772.089 296.48 775.021 298.923C781.398 304.298 792.418 313.762 798.103 319.553C803.103 324.668 804.667 344.491 805.139 359.42Z" fill="black"/>
<path d="M717.855 253.811C719.019 251.441 719.598 248.785 720.99 246.538C723.035 243.28 726.602 241.195 730.267 239.932C739.837 236.634 760.06 231.845 766.103 239.932C767.292 241.561 768.277 243.369 769.923 244.493C771.177 245.348 772.692 245.715 774.068 246.358C777.92 248.166 780.38 252.108 781.691 256.132C783.003 260.155 783.394 264.472 784.355 268.617C785.584 273.936 787.743 278.977 789.893 283.986C792.426 289.899 795.114 296.032 800 300.21C806.671 305.911 808.145 313.982 814.335 320.237C821.665 327.665 821.428 339.922 817.649 349.655C817.153 350.934 816.591 352.269 816.786 353.63C816.982 354.99 817.991 356.228 818.944 357.311L822.951 361.831C813.471 364.12 802.745 359.168 798.331 350.478C796.97 347.79 796.066 344.695 793.737 342.781C791.652 341.071 788.85 340.664 786.252 339.898C777.684 337.357 770.501 329.53 770.232 320.604C770.102 316.409 771.413 312.215 770.818 308.061C770.488 305.69 769.548 303.445 768.09 301.545C765.85 298.622 762.47 296.659 760.646 293.401C757.559 287.952 759.905 280.875 757.681 275.027C756.997 273.235 755.629 271.443 753.715 271.305C751.801 271.167 750.164 272.755 748.332 273.463C744.52 274.946 740.399 272.429 737.214 269.847C734.03 267.265 730.438 264.333 726.382 264.912C723.703 265.286 721.593 267.111 719.125 268.063C717.301 268.764 713.603 269.391 712.007 267.852C708.635 264.749 716.446 256.71 717.855 253.811Z" fill="#591D4B"/>
<path opacity="0.1" d="M800.595 347.79C799.226 345.102 798.331 342.007 796.001 340.101C793.916 338.391 791.115 337.976 788.508 337.21C779.948 334.677 772.765 326.85 772.488 317.924C772.358 313.73 773.669 309.527 773.083 305.373C772.741 303.017 771.802 300.788 770.354 298.898C768.106 295.975 764.726 294.012 762.91 290.754C759.823 285.313 762.169 278.236 759.937 272.38C759.261 270.596 757.885 268.804 755.979 268.658C754.073 268.511 752.42 270.116 750.596 270.824C746.784 272.307 742.655 269.782 739.478 267.208C736.302 264.634 732.694 261.694 728.646 262.264C725.967 262.647 723.849 264.472 721.39 265.416C719.565 266.117 715.859 266.752 714.263 265.213C710.908 261.955 718.718 253.933 720.119 251.049C721.284 248.671 721.862 246.024 723.263 243.776C723.336 243.654 723.418 243.532 723.499 243.41C722.451 244.278 721.547 245.306 720.819 246.456C719.427 248.704 718.848 251.343 717.684 253.729C716.275 256.612 708.464 264.659 711.828 267.892C713.457 269.44 717.122 268.804 718.946 268.104C721.39 267.151 723.523 265.327 726.203 264.952C730.275 264.374 733.859 267.314 737.035 269.888C740.211 272.461 744.365 274.986 748.16 273.504C749.985 272.795 751.581 271.199 753.536 271.346C755.491 271.492 756.794 273.276 757.502 275.068C759.726 280.915 757.38 287.993 760.467 293.442C762.291 296.642 765.671 298.646 767.911 301.586C769.368 303.486 770.308 305.73 770.639 308.102C771.234 312.255 769.923 316.45 770.053 320.644C770.322 329.603 777.505 337.397 786.073 339.939C788.655 340.704 791.473 341.111 793.558 342.822C795.895 344.736 796.816 347.831 798.151 350.518C802.566 359.208 813.292 364.16 822.772 361.872L820.883 359.738C812.665 359.86 804.349 355.185 800.595 347.79Z" fill="black"/>
<path opacity="0.1" d="M744.446 310.618C743.38 312.247 740.325 320.587 737.776 327.868C735.39 326.94 733.223 321.019 733.223 321.019L745.945 302.922C747.248 304.714 746.393 307.686 744.446 310.618Z" fill="black"/>
<path d="M744.935 310.13C743.868 311.758 740.814 320.098 738.265 327.38C735.879 326.459 733.712 320.53 733.712 320.53L746.434 302.441C747.737 304.225 746.882 307.206 744.935 310.13Z" fill="#DCE7FF"/>
<path d="M670.967 393.334L663.914 371.091C663.83 370.831 663.799 370.556 663.822 370.284C663.845 370.011 663.921 369.746 664.047 369.503C664.172 369.26 664.345 369.045 664.554 368.868C664.763 368.692 665.005 368.559 665.266 368.477C665.791 368.313 666.359 368.363 666.847 368.616C667.335 368.87 667.704 369.305 667.872 369.829L674.925 392.047L674.225 396.698L670.967 393.334Z" fill="#BE8B87"/>
<path opacity="0.1" d="M664.582 369.136C665.108 368.97 665.678 369.019 666.168 369.272C666.658 369.526 667.028 369.963 667.196 370.488L674.249 392.707L673.72 396.192L674.233 396.73L674.933 392.079L667.839 369.861C667.671 369.338 667.303 368.902 666.815 368.649C666.326 368.396 665.758 368.345 665.233 368.509C664.791 368.653 664.41 368.939 664.15 369.324C664.288 369.249 664.433 369.187 664.582 369.136Z" fill="white"/>
<path d="M670.967 393.334L674.925 392.08L674.347 395.891L674.225 396.73L673.068 395.525L670.967 393.334Z" fill="#EFC8C4"/>
<path d="M673.068 395.525C673.137 395.438 673.223 395.366 673.321 395.313C673.378 395.277 673.444 395.258 673.512 395.258C673.58 395.258 673.646 395.277 673.703 395.313C673.759 395.38 673.805 395.454 673.842 395.533C673.896 395.623 673.969 395.699 674.056 395.757C674.144 395.815 674.243 395.852 674.347 395.867L674.225 396.681L673.068 395.525Z" fill="#727A9C"/>
<path d="M663.873 378.992C663.873 378.992 678.02 378.91 674.689 384.929C671.358 390.948 666.153 391.672 666.153 391.672L663.873 378.992Z" fill="#949191"/>
<path opacity="0.1" d="M164.923 821.745C184.561 824.855 203.001 811.458 206.112 791.82C209.222 772.183 195.824 753.742 176.186 750.632C156.549 747.521 138.108 760.919 134.998 780.557C131.888 800.194 145.286 818.635 164.923 821.745Z" fill="url(#paint66_linear)"/>
<path opacity="0.1" d="M246.752 806.84C228.111 813.756 218.607 834.474 225.523 853.115C232.439 871.755 253.156 881.26 271.797 874.344C290.438 867.428 299.942 846.711 293.026 828.07C286.11 809.429 265.393 799.925 246.752 806.84Z" fill="url(#paint67_linear)"/>
<path opacity="0.1" d="M84.7542 829.297C95.6639 831.025 105.909 823.582 107.637 812.672C109.365 801.763 101.921 791.518 91.0116 789.79C80.1019 788.062 69.8571 795.505 68.1291 806.415C66.4012 817.325 73.8445 827.569 84.7542 829.297Z" fill="url(#paint68_linear)"/>
<path opacity="0.1" d="M312.925 760.957C302.569 764.799 297.288 776.309 301.131 786.665C304.973 797.021 316.483 802.301 326.839 798.459C337.194 794.617 342.475 783.107 338.633 772.751C334.79 762.395 323.281 757.115 312.925 760.957Z" fill="url(#paint69_linear)"/>
<path d="M464.101 380.718H625.777C618.984 348.793 610.854 296.273 614.353 283.4C620.117 261.568 638.744 245.091 645.743 227.584C681.351 138.608 637.842 61.1458 539.433 50.8671C452.539 41.7909 404.205 91.1328 397.412 142.109C396.692 147.567 397.412 153.025 399.986 158.689C388.048 177.329 360.569 204.825 358.203 218.006C356.762 225.936 366.127 228.716 370.656 231.497C374.978 232.939 379.712 231.909 382.593 235.41C384.651 237.985 381.873 242.31 381.255 245.503C381.152 250.755 374.978 253.329 375.595 258.169C376.213 262.289 379.712 263.937 382.902 266.511C386.299 269.188 374.257 274.338 378.167 279.075C382.181 283.709 388.048 289.064 385.989 295.655C383.004 305.85 377.24 316.457 381.975 324.387C386.71 332.213 393.295 336.847 403.484 338.906C416.033 338.906 428.646 339.099 441.273 339.181C448.305 339.227 454.702 343.228 457.85 349.516C462.879 359.561 464.912 369.967 464.101 380.718Z" fill="#CC99FF"/>
<path d="M575.936 89.8789H575.456C556.37 89.8789 539.491 99.9784 529.781 114.881C520.072 99.9784 503.193 89.8789 484.107 89.8789H483.627C469.303 90.0154 455.612 95.7992 445.529 105.973C435.446 116.147 429.786 129.89 429.778 144.214C429.778 162.001 437.569 187.241 452.759 208.009C481.702 247.581 529.781 282.204 529.781 282.204C529.781 282.204 577.861 247.588 606.797 208.009C621.994 187.241 629.778 162.001 629.778 144.214C629.77 129.891 624.111 116.149 614.029 105.976C603.947 95.8016 590.258 90.0171 575.936 89.8789ZM569.073 211.053C566.899 211.045 564.779 210.38 562.99 209.145C561.201 207.909 559.828 206.162 559.05 204.133H547.639C546.888 204.128 546.157 203.889 545.548 203.448C544.939 203.008 544.483 202.389 544.243 201.677L540.738 191.117L529.647 229.871C529.431 230.617 528.979 231.272 528.358 231.74C527.738 232.207 526.982 232.46 526.206 232.461H525.982C525.172 232.422 524.399 232.106 523.794 231.566C523.188 231.025 522.787 230.294 522.656 229.493L511.226 160.748L502.873 201.427C502.681 202.2 502.236 202.886 501.609 203.377C500.982 203.867 500.209 204.133 499.413 204.133H483.339C482.857 204.153 482.376 204.076 481.925 203.905C481.474 203.735 481.062 203.475 480.714 203.142C480.366 202.808 480.089 202.407 479.899 201.964C479.71 201.52 479.612 201.043 479.612 200.56C479.612 200.078 479.71 199.601 479.899 199.157C480.089 198.714 480.366 198.313 480.714 197.979C481.062 197.646 481.474 197.386 481.925 197.215C482.376 197.045 482.857 196.968 483.339 196.988H496.598L508.431 142.295C508.625 141.486 509.094 140.77 509.758 140.269C510.422 139.768 511.239 139.513 512.07 139.548C512.901 139.583 513.694 139.905 514.313 140.46C514.933 141.015 515.341 141.767 515.467 142.589L527.14 212.716L537.079 178.043C537.286 177.313 537.724 176.669 538.327 176.208C538.93 175.747 539.665 175.493 540.424 175.484H540.495C541.246 175.485 541.979 175.722 542.588 176.163C543.196 176.604 543.65 177.226 543.885 177.941L550.223 197.007H558.909C559.527 195.131 560.651 193.462 562.157 192.184C563.663 190.906 565.493 190.07 567.445 189.766C569.397 189.463 571.394 189.705 573.218 190.465C575.041 191.225 576.618 192.474 577.776 194.074C578.934 195.675 579.627 197.564 579.78 199.533C579.932 201.502 579.537 203.476 578.639 205.235C577.74 206.994 576.373 208.47 574.688 209.502C573.004 210.533 571.067 211.079 569.092 211.079L569.073 211.053Z" fill="#6B73FF"/>
<defs>
<linearGradient id="paint0_linear" x1="300.213" y1="678.652" x2="300.213" y2="704.144" gradientUnits="userSpaceOnUse">
<stop stop-color="#6B73FF"/>
<stop offset="1" stop-color="#9B4EFE"/>
</linearGradient>
<linearGradient id="paint1_linear" x1="731.603" y1="679.01" x2="731.603" y2="704.503" gradientUnits="userSpaceOnUse">
<stop stop-color="#6B73FF"/>
<stop offset="1" stop-color="#9B4EFE"/>
</linearGradient>
<linearGradient id="paint2_linear" x1="52.7544" y1="342.447" x2="52.7544" y2="549.456" gradientUnits="userSpaceOnUse">
<stop stop-color="#6B73FF"/>
<stop offset="1" stop-color="#9B4EFE"/>
</linearGradient>
<linearGradient id="paint3_linear" x1="72.2606" y1="159.701" x2="72.2606" y2="217.005" gradientUnits="userSpaceOnUse">
<stop stop-color="#6B73FF"/>
<stop offset="1" stop-color="#9B4EFE"/>
</linearGradient>
<linearGradient id="paint4_linear" x1="53.7317" y1="220.491" x2="53.7317" y2="338.961" gradientUnits="userSpaceOnUse">
<stop stop-color="#6B73FF"/>
<stop offset="1" stop-color="#9B4EFE"/>
</linearGradient>
<linearGradient id="paint5_linear" x1="507.821" y1="66.9949" x2="507.821" y2="654.911" gradientUnits="userSpaceOnUse">
<stop stop-color="#6B73FF"/>
<stop offset="1" stop-color="#9B4EFE"/>
</linearGradient>
<linearGradient id="paint6_linear" x1="53.7317" y1="280.248" x2="53.7317" y2="338.961" gradientUnits="userSpaceOnUse">
<stop stop-color="#6B73FF"/>
<stop offset="1" stop-color="#9B4EFE"/>
</linearGradient>
<linearGradient id="paint7_linear" x1="52.7544" y1="342.447" x2="52.7544" y2="549.456" gradientUnits="userSpaceOnUse">
<stop stop-color="#6B73FF"/>
<stop offset="1" stop-color="#9B4EFE"/>
</linearGradient>
<linearGradient id="paint8_linear" x1="145.74" y1="203.078" x2="145.74" y2="338.961" gradientUnits="userSpaceOnUse">
<stop stop-color="#6B73FF"/>
<stop offset="1" stop-color="#9B4EFE"/>
</linearGradient>
<linearGradient id="paint9_linear" x1="145.744" y1="342.439" x2="145.744" y2="455.102" gradientUnits="userSpaceOnUse">
<stop stop-color="#6B73FF"/>
<stop offset="1" stop-color="#9B4EFE"/>
</linearGradient>
<linearGradient id="paint10_linear" x1="145.74" y1="458.596" x2="145.74" y2="557.91" gradientUnits="userSpaceOnUse">
<stop stop-color="#6B73FF"/>
<stop offset="1" stop-color="#9B4EFE"/>
</linearGradient>
<linearGradient id="paint11_linear" x1="539.694" y1="225.459" x2="539.694" y2="338.953" gradientUnits="userSpaceOnUse">
<stop stop-color="#6B73FF"/>
<stop offset="1" stop-color="#9B4EFE"/>
</linearGradient>
<linearGradient id="paint12_linear" x1="438.144" y1="342.439" x2="438.144" y2="455.11" gradientUnits="userSpaceOnUse">
<stop stop-color="#6B73FF"/>
<stop offset="1" stop-color="#9B4EFE"/>
</linearGradient>
<linearGradient id="paint13_linear" x1="438.547" y1="457.04" x2="438.547" y2="653.306" gradientUnits="userSpaceOnUse">
<stop stop-color="#6B73FF"/>
<stop offset="1" stop-color="#9B4EFE"/>
</linearGradient>
<linearGradient id="paint14_linear" x1="682.271" y1="175.721" x2="682.271" y2="217.005" gradientUnits="userSpaceOnUse">
<stop stop-color="#6B73FF"/>
<stop offset="1" stop-color="#9B4EFE"/>
</linearGradient>
<linearGradient id="paint15_linear" x1="682.239" y1="220.491" x2="682.239" y2="339.002" gradientUnits="userSpaceOnUse">
<stop stop-color="#6B73FF"/>
<stop offset="1" stop-color="#9B4EFE"/>
</linearGradient>
<linearGradient id="paint16_linear" x1="708.753" y1="342.439" x2="708.753" y2="654.911" gradientUnits="userSpaceOnUse">
<stop stop-color="#6B73FF"/>
<stop offset="1" stop-color="#9B4EFE"/>
</linearGradient>
<linearGradient id="paint17_linear" x1="876.587" y1="458.596" x2="876.587" y2="570.184" gradientUnits="userSpaceOnUse">
<stop stop-color="#6B73FF"/>
<stop offset="1" stop-color="#9B4EFE"/>
</linearGradient>
<linearGradient id="paint18_linear" x1="878.31" y1="360.951" x2="878.31" y2="455.11" gradientUnits="userSpaceOnUse">
<stop stop-color="#6B73FF"/>
<stop offset="1" stop-color="#9B4EFE"/>
</linearGradient>
<linearGradient id="paint19_linear" x1="551.597" y1="257.011" x2="551.597" y2="292.595" gradientUnits="userSpaceOnUse">
<stop stop-color="#6B73FF"/>
<stop offset="1" stop-color="#9B4EFE"/>
</linearGradient>
<linearGradient id="paint20_linear" x1="551.597" y1="330.768" x2="551.597" y2="338.961" gradientUnits="userSpaceOnUse">
<stop stop-color="#6B73FF"/>
<stop offset="1" stop-color="#9B4EFE"/>
</linearGradient>
<linearGradient id="paint21_linear" x1="551.597" y1="342.439" x2="551.597" y2="366.343" gradientUnits="userSpaceOnUse">
<stop stop-color="#6B73FF"/>
<stop offset="1" stop-color="#9B4EFE"/>
</linearGradient>
<linearGradient id="paint22_linear" x1="551.597" y1="404.524" x2="551.597" y2="440.108" gradientUnits="userSpaceOnUse">
<stop stop-color="#6B73FF"/>
<stop offset="1" stop-color="#9B4EFE"/>
</linearGradient>
<linearGradient id="paint23_linear" x1="551.597" y1="478.281" x2="551.597" y2="513.864" gradientUnits="userSpaceOnUse">
<stop stop-color="#6B73FF"/>
<stop offset="1" stop-color="#9B4EFE"/>
</linearGradient>
<linearGradient id="paint24_linear" x1="552" y1="552.038" x2="552" y2="587.662" gradientUnits="userSpaceOnUse">
<stop stop-color="#6B73FF"/>
<stop offset="1" stop-color="#9B4EFE"/>
</linearGradient>
<linearGradient id="paint25_linear" x1="551.593" y1="625.778" x2="551.593" y2="653.266" gradientUnits="userSpaceOnUse">
<stop stop-color="#6B73FF"/>
<stop offset="1" stop-color="#9B4EFE"/>
</linearGradient>
<linearGradient id="paint26_linear" x1="369.795" y1="452.496" x2="369.795" y2="455.11" gradientUnits="userSpaceOnUse">
<stop stop-color="#6B73FF"/>
<stop offset="1" stop-color="#9B4EFE"/>
</linearGradient>
<linearGradient id="paint27_linear" x1="369.795" y1="458.588" x2="369.795" y2="468.605" gradientUnits="userSpaceOnUse">
<stop stop-color="#6B73FF"/>
<stop offset="1" stop-color="#9B4EFE"/>
</linearGradient>
<linearGradient id="paint28_linear" x1="369.795" y1="501.444" x2="369.795" y2="517.554" gradientUnits="userSpaceOnUse">
<stop stop-color="#6B73FF"/>
<stop offset="1" stop-color="#9B4EFE"/>
</linearGradient>
<linearGradient id="paint29_linear" x1="372.638" y1="550.393" x2="372.638" y2="566.502" gradientUnits="userSpaceOnUse">
<stop stop-color="#6B73FF"/>
<stop offset="1" stop-color="#9B4EFE"/>
</linearGradient>
<linearGradient id="paint30_linear" x1="407.704" y1="599.308" x2="407.704" y2="615.426" gradientUnits="userSpaceOnUse">
<stop stop-color="#6B73FF"/>
<stop offset="1" stop-color="#9B4EFE"/>
</linearGradient>
<linearGradient id="paint31_linear" x1="644.456" y1="353.361" x2="644.456" y2="376.524" gradientUnits="userSpaceOnUse">
<stop stop-color="#6B73FF"/>
<stop offset="1" stop-color="#9B4EFE"/>
</linearGradient>
<linearGradient id="paint32_linear" x1="142.935" y1="245.438" x2="142.935" y2="268.601" gradientUnits="userSpaceOnUse">
<stop stop-color="#6B73FF"/>
<stop offset="1" stop-color="#9B4EFE"/>
</linearGradient>
<linearGradient id="paint33_linear" x1="142.935" y1="299.24" x2="142.935" y2="322.403" gradientUnits="userSpaceOnUse">
<stop stop-color="#6B73FF"/>
<stop offset="1" stop-color="#9B4EFE"/>
</linearGradient>
<linearGradient id="paint34_linear" x1="142.935" y1="353.043" x2="142.935" y2="376.206" gradientUnits="userSpaceOnUse">
<stop stop-color="#6B73FF"/>
<stop offset="1" stop-color="#9B4EFE"/>
</linearGradient>
<linearGradient id="paint35_linear" x1="142.935" y1="406.837" x2="142.935" y2="430" gradientUnits="userSpaceOnUse">
<stop stop-color="#6B73FF"/>
<stop offset="1" stop-color="#9B4EFE"/>
</linearGradient>
<linearGradient id="paint36_linear" x1="142.935" y1="460.64" x2="142.935" y2="483.803" gradientUnits="userSpaceOnUse">
<stop stop-color="#6B73FF"/>
<stop offset="1" stop-color="#9B4EFE"/>
</linearGradient>
<linearGradient id="paint37_linear" x1="142.935" y1="514.443" x2="142.935" y2="537.605" gradientUnits="userSpaceOnUse">
<stop stop-color="#6B73FF"/>
<stop offset="1" stop-color="#9B4EFE"/>
</linearGradient>
<linearGradient id="paint38_linear" x1="732.882" y1="353.361" x2="732.882" y2="376.524" gradientUnits="userSpaceOnUse">
<stop stop-color="#6B73FF"/>
<stop offset="1" stop-color="#9B4EFE"/>
</linearGradient>
<linearGradient id="paint39_linear" x1="644.456" y1="410.494" x2="644.456" y2="433.657" gradientUnits="userSpaceOnUse">
<stop stop-color="#6B73FF"/>
<stop offset="1" stop-color="#9B4EFE"/>
</linearGradient>
<linearGradient id="paint40_linear" x1="732.882" y1="410.494" x2="732.882" y2="433.657" gradientUnits="userSpaceOnUse">
<stop stop-color="#6B73FF"/>
<stop offset="1" stop-color="#9B4EFE"/>
</linearGradient>
<linearGradient id="paint41_linear" x1="644.456" y1="467.62" x2="644.456" y2="490.783" gradientUnits="userSpaceOnUse">
<stop stop-color="#6B73FF"/>
<stop offset="1" stop-color="#9B4EFE"/>
</linearGradient>
<linearGradient id="paint42_linear" x1="732.882" y1="467.62" x2="732.882" y2="490.783" gradientUnits="userSpaceOnUse">
<stop stop-color="#6B73FF"/>
<stop offset="1" stop-color="#9B4EFE"/>
</linearGradient>
<linearGradient id="paint43_linear" x1="644.456" y1="524.753" x2="644.456" y2="547.916" gradientUnits="userSpaceOnUse">
<stop stop-color="#6B73FF"/>
<stop offset="1" stop-color="#9B4EFE"/>
</linearGradient>
<linearGradient id="paint44_linear" x1="732.882" y1="524.753" x2="732.882" y2="547.916" gradientUnits="userSpaceOnUse">
<stop stop-color="#6B73FF"/>
<stop offset="1" stop-color="#9B4EFE"/>
</linearGradient>
<linearGradient id="paint45_linear" x1="644.456" y1="581.887" x2="644.456" y2="605.05" gradientUnits="userSpaceOnUse">
<stop stop-color="#6B73FF"/>
<stop offset="1" stop-color="#9B4EFE"/>
</linearGradient>
<linearGradient id="paint46_linear" x1="732.882" y1="581.887" x2="732.882" y2="605.05" gradientUnits="userSpaceOnUse">
<stop stop-color="#6B73FF"/>
<stop offset="1" stop-color="#9B4EFE"/>
</linearGradient>
<linearGradient id="paint47_linear" x1="644.452" y1="639.013" x2="644.452" y2="653.95" gradientUnits="userSpaceOnUse">
<stop stop-color="#6B73FF"/>
<stop offset="1" stop-color="#9B4EFE"/>
</linearGradient>
<linearGradient id="paint48_linear" x1="55.2954" y1="310.007" x2="55.2954" y2="323.258" gradientUnits="userSpaceOnUse">
<stop stop-color="#6B73FF"/>
<stop offset="1" stop-color="#9B4EFE"/>
</linearGradient>
<linearGradient id="paint49_linear" x1="55.2954" y1="348.563" x2="55.2954" y2="361.815" gradientUnits="userSpaceOnUse">
<stop stop-color="#6B73FF"/>
<stop offset="1" stop-color="#9B4EFE"/>
</linearGradient>
<linearGradient id="paint50_linear" x1="55.2954" y1="387.136" x2="55.2954" y2="400.411" gradientUnits="userSpaceOnUse">
<stop stop-color="#6B73FF"/>
<stop offset="1" stop-color="#9B4EFE"/>
</linearGradient>
<linearGradient id="paint51_linear" x1="55.2954" y1="425.708" x2="55.2954" y2="438.943" gradientUnits="userSpaceOnUse">
<stop stop-color="#6B73FF"/>
<stop offset="1" stop-color="#9B4EFE"/>
</linearGradient>
<linearGradient id="paint52_linear" x1="55.4666" y1="464.272" x2="55.4666" y2="477.499" gradientUnits="userSpaceOnUse">
<stop stop-color="#6B73FF"/>
<stop offset="1" stop-color="#9B4EFE"/>
</linearGradient>
<linearGradient id="paint53_linear" x1="64.6823" y1="502.845" x2="64.6823" y2="516.063" gradientUnits="userSpaceOnUse">
<stop stop-color="#6B73FF"/>
<stop offset="1" stop-color="#9B4EFE"/>
</linearGradient>
<linearGradient id="paint54_linear" x1="86.428" y1="541.409" x2="86.428" y2="549.431" gradientUnits="userSpaceOnUse">
<stop stop-color="#6B73FF"/>
<stop offset="1" stop-color="#9B4EFE"/>
</linearGradient>
<linearGradient id="paint55_linear" x1="369.547" y1="216.981" x2="369.547" y2="579.338" gradientUnits="userSpaceOnUse">
<stop stop-color="#6B73FF"/>
<stop offset="1" stop-color="#9B4EFE"/>
</linearGradient>
<linearGradient id="paint56_linear" x1="291.213" y1="698.093" x2="291.213" y2="196.929" gradientUnits="userSpaceOnUse">
<stop stop-color="#808080" stop-opacity="0.25"/>
<stop offset="0.54" stop-color="#808080" stop-opacity="0.12"/>
<stop offset="1" stop-color="#808080" stop-opacity="0.1"/>
</linearGradient>
<linearGradient id="paint57_linear" x1="262.628" y1="551.622" x2="262.628" y2="674.246" gradientUnits="userSpaceOnUse">
<stop stop-color="#6B73FF"/>
<stop offset="1" stop-color="#9B4EFE"/>
</linearGradient>
<linearGradient id="paint58_linear" x1="324.98" y1="559.587" x2="324.98" y2="667.066" gradientUnits="userSpaceOnUse">
<stop stop-color="#6B73FF"/>
<stop offset="1" stop-color="#9B4EFE"/>
</linearGradient>
<linearGradient id="paint59_linear" x1="302.408" y1="275.841" x2="302.408" y2="567.716" gradientUnits="userSpaceOnUse">
<stop stop-color="#6B73FF"/>
<stop offset="1" stop-color="#9B4EFE"/>
</linearGradient>
<linearGradient id="paint60_linear" x1="109.102" y1="660.97" x2="109.102" y2="686.463" gradientUnits="userSpaceOnUse">
<stop stop-color="#6B73FF"/>
<stop offset="1" stop-color="#9B4EFE"/>
</linearGradient>
<linearGradient id="paint61_linear" x1="55.271" y1="449.897" x2="55.271" y2="527.808" gradientUnits="userSpaceOnUse">
<stop stop-color="#6B73FF"/>
<stop offset="1" stop-color="#9B4EFE"/>
</linearGradient>
<linearGradient id="paint62_linear" x1="79.8065" y1="416.912" x2="79.8065" y2="459.312" gradientUnits="userSpaceOnUse">
<stop stop-color="#6B73FF"/>
<stop offset="1" stop-color="#9B4EFE"/>
</linearGradient>
<linearGradient id="paint63_linear" x1="143.757" y1="431.507" x2="143.757" y2="505.524" gradientUnits="userSpaceOnUse">
<stop stop-color="#6B73FF"/>
<stop offset="1" stop-color="#9B4EFE"/>
</linearGradient>
<linearGradient id="paint64_linear" x1="181799" y1="378202" x2="181799" y2="120950" gradientUnits="userSpaceOnUse">
<stop stop-color="#858282" stop-opacity="0.25"/>
<stop offset="0.54" stop-color="#808080" stop-opacity="0.12"/>
<stop offset="1" stop-color="#808080" stop-opacity="0.1"/>
</linearGradient>
<linearGradient id="paint65_linear" x1="744.581" y1="405.404" x2="744.581" y2="559.193" gradientUnits="userSpaceOnUse">
<stop stop-color="#6B73FF"/>
<stop offset="1" stop-color="#9B4EFE"/>
</linearGradient>
<linearGradient id="paint66_linear" x1="176.186" y1="750.632" x2="164.923" y2="821.745" gradientUnits="userSpaceOnUse">
<stop stop-color="#6B73FF"/>
<stop offset="1" stop-color="#9B4EFE"/>
</linearGradient>
<linearGradient id="paint67_linear" x1="271.797" y1="874.344" x2="246.752" y2="806.84" gradientUnits="userSpaceOnUse">
<stop stop-color="#6B73FF"/>
<stop offset="1" stop-color="#9B4EFE"/>
</linearGradient>
<linearGradient id="paint68_linear" x1="91.0116" y1="789.79" x2="84.7542" y2="829.297" gradientUnits="userSpaceOnUse">
<stop stop-color="#6B73FF"/>
<stop offset="1" stop-color="#9B4EFE"/>
</linearGradient>
<linearGradient id="paint69_linear" x1="326.839" y1="798.459" x2="312.925" y2="760.957" gradientUnits="userSpaceOnUse">
<stop stop-color="#6B73FF"/>
<stop offset="1" stop-color="#9B4EFE"/>
</linearGradient>
</defs>
</svg>
