<svg width="42" height="38" viewBox="0 0 42 38" fill="none" xmlns="http://www.w3.org/2000/svg">
<path d="M38.6925 8.95805C37.6823 5.02438 34.5054 2.53344 30.1345 2.06096C29.7546 2.0199 29.3851 2 29.0249 2C25.2255 2 22.5223 4.21869 20.9769 7.25109C19.3623 4.08643 16.6063 2.03368 12.5879 2.03368C12.322 2.03368 12.0502 2.04268 11.7732 2.06094C7.77646 2.32438 4.34322 4.71434 3.26153 9.37316C1.31572 17.7538 10.5258 26.3206 20.9771 34.6541C32.092 26.3765 40.7635 17.0205 38.6927 8.95681L38.6925 8.95805Z" stroke="#6B73FF" stroke-width="4"/>
<path d="M11.917 17.7896H15.265L15.751 16.3316L16.21 17.7896H16.6961L16.9121 18.4646L17.4521 9.17651L18.2621 22.2715L18.6941 17.7896L19.855 17.7626C19.855 17.7626 20.827 16.4126 21.907 17.7626L23.581 17.7355L24.148 16.3315L24.607 17.6815L25.066 17.7355L25.255 18.4375L25.876 9.39257L26.659 22.2716L27.064 17.7355L28.387 17.7895C28.4351 17.7852 29.3041 16.4341 30.3851 17.7625L33.517 17.7355" stroke="#6B73FF" stroke-width="0.5" stroke-miterlimit="10" stroke-linecap="round" stroke-linejoin="round"/>
</svg>
